<svg width="141" height="54" viewBox="0 0 141 54" fill="none" xmlns="http://www.w3.org/2000/svg">
<path d="M23.3768 9.4243L3.6004 26.7612L23.3768 44.0981L25.201 42.4995L7.24884 26.7612L25.201 11.0239L23.3768 9.4243Z" fill="#BE8069"/>
<path d="M23.4232 9.4243L43.1996 26.7612L23.4232 44.0981L21.599 42.4995L39.5512 26.7612L21.599 11.0239L23.4232 9.4243Z" fill="#BE8069"/>
<mask id="path-3-inside-1_7_585" fill="white">
<path d="M20.0299 36.0081V29.2093H23.7799L20.0299 36.0081Z"/>
</mask>
<path d="M20.0299 36.0081V29.2093H23.7799L20.0299 36.0081Z" fill="white" fill-opacity="0.1"/>
<path d="M20.0299 36.0081H19.3299L20.6429 36.3462L20.0299 36.0081ZM20.0299 29.2093V28.5093H19.3299V29.2093H20.0299ZM23.7799 29.2093L24.3929 29.5474L24.9655 28.5093H23.7799V29.2093ZM20.0299 36.0081H20.7299V29.2093H20.0299H19.3299V36.0081H20.0299ZM20.0299 29.2093V29.9093H23.7799V29.2093V28.5093H20.0299V29.2093ZM23.7799 29.2093L23.167 28.8712L19.417 35.6701L20.0299 36.0081L20.6429 36.3462L24.3929 29.5474L23.7799 29.2093Z" fill="#BE8069" mask="url(#path-3-inside-1_7_585)"/>
<mask id="path-5-inside-2_7_585" fill="white">
<path d="M26.7257 36.0081V29.2093H23.0656L26.7257 36.0081Z"/>
</mask>
<path d="M26.7257 36.0081V29.2093H23.0656L26.7257 36.0081Z" fill="white" fill-opacity="0.1"/>
<path d="M26.7257 36.0081H27.4257L26.1093 36.34L26.7257 36.0081ZM26.7257 29.2093V28.5093H27.4257V29.2093H26.7257ZM23.0656 29.2093L22.4492 29.5411L21.8937 28.5093H23.0656V29.2093ZM26.7257 36.0081H26.0257V29.2093H26.7257H27.4257V36.0081H26.7257ZM26.7257 29.2093V29.9093H23.0656V29.2093V28.5093H26.7257V29.2093ZM23.0656 29.2093L23.6819 28.8775L27.3421 35.6763L26.7257 36.0081L26.1093 36.34L22.4492 29.5411L23.0656 29.2093Z" fill="#BE8069" mask="url(#path-5-inside-2_7_585)"/>
<mask id="path-7-inside-3_7_585" fill="white">
<path d="M26.9499 17.5142V24.313H23.1999L26.9499 17.5142Z"/>
</mask>
<path d="M26.9499 17.5142V24.313H23.1999L26.9499 17.5142Z" fill="white" fill-opacity="0.1"/>
<path d="M26.9499 17.5142H27.6499L26.3369 17.1761L26.9499 17.5142ZM26.9499 24.313V25.013H27.6499V24.313H26.9499ZM23.1999 24.313L22.5869 23.9749L22.0143 25.013H23.1999V24.313ZM26.9499 17.5142H26.2499V24.313H26.9499H27.6499V17.5142H26.9499ZM26.9499 24.313V23.613H23.1999V24.313V25.013H26.9499V24.313ZM23.1999 24.313L23.8128 24.6511L27.5628 17.8522L26.9499 17.5142L26.3369 17.1761L22.5869 23.9749L23.1999 24.313Z" fill="#BE8069" mask="url(#path-7-inside-3_7_585)"/>
<mask id="path-9-inside-4_7_585" fill="white">
<path d="M20.1642 17.5142V24.313H23.9142L20.1642 17.5142Z"/>
</mask>
<path d="M20.1642 17.5142V24.313H23.9142L20.1642 17.5142Z" fill="white" fill-opacity="0.1"/>
<path d="M20.1642 17.5142H19.4642L20.7772 17.1761L20.1642 17.5142ZM20.1642 24.313V25.013H19.4642V24.313H20.1642ZM23.9142 24.313L24.5272 23.9749L25.0997 25.013H23.9142V24.313ZM20.1642 17.5142H20.8642V24.313H20.1642H19.4642V17.5142H20.1642ZM20.1642 24.313V23.613H23.9142V24.313V25.013H20.1642V24.313ZM23.9142 24.313L23.3013 24.6511L19.5513 17.8522L20.1642 17.5142L20.7772 17.1761L24.5272 23.9749L23.9142 24.313Z" fill="#BE8069" mask="url(#path-9-inside-4_7_585)"/>
<mask id="path-11-inside-5_7_585" fill="white">
<path d="M13.2 23.7056H20.7V27.7124L13.2 23.7056Z"/>
</mask>
<path d="M13.2 23.7056H20.7V27.7124L13.2 23.7056Z" fill="white" fill-opacity="0.1"/>
<path d="M13.2 23.7056V23.0056L12.8701 24.323L13.2 23.7056ZM20.7 23.7056H21.4V23.0056H20.7V23.7056ZM20.7 27.7124L20.3701 28.3299L21.4 28.8801V27.7124H20.7ZM13.2 23.7056V24.4056H20.7V23.7056V23.0056H13.2V23.7056ZM20.7 23.7056H20V27.7124H20.7H21.4V23.7056H20.7ZM20.7 27.7124L21.0298 27.095L13.5298 23.0882L13.2 23.7056L12.8701 24.323L20.3701 28.3299L20.7 27.7124Z" fill="#BE8069" mask="url(#path-11-inside-5_7_585)"/>
<mask id="path-13-inside-6_7_585" fill="white">
<path d="M13.2 29.9786H20.7V26.5792L13.2 29.9786Z"/>
</mask>
<path d="M13.2 29.9786H20.7V26.5792L13.2 29.9786Z" fill="white" fill-opacity="0.1"/>
<path d="M13.2 29.9786V30.6786L12.911 29.341L13.2 29.9786ZM20.7 29.9786H21.4V30.6786H20.7V29.9786ZM20.7 26.5792L20.411 25.9416L21.4 25.4934V26.5792H20.7ZM13.2 29.9786V29.2786H20.7V29.9786V30.6786H13.2V29.9786ZM20.7 29.9786H20V26.5792H20.7H21.4V29.9786H20.7ZM20.7 26.5792L20.989 27.2168L13.489 30.6162L13.2 29.9786L12.911 29.341L20.411 25.9416L20.7 26.5792Z" fill="#BE8069" mask="url(#path-13-inside-6_7_585)"/>
<mask id="path-15-inside-7_7_585" fill="white">
<path d="M33.601 29.8569H26.101V26.4575L33.601 29.8569Z"/>
</mask>
<path d="M33.601 29.8569H26.101V26.4575L33.601 29.8569Z" fill="white" fill-opacity="0.1"/>
<path d="M33.601 29.8569V30.5569L33.89 29.2194L33.601 29.8569ZM26.101 29.8569H25.401V30.5569H26.101V29.8569ZM26.101 26.4575L26.39 25.8199L25.401 25.3717V26.4575H26.101ZM33.601 29.8569V29.1569H26.101V29.8569V30.5569H33.601V29.8569ZM26.101 29.8569H26.801V26.4575H26.101H25.401V29.8569H26.101ZM26.101 26.4575L25.812 27.0951L33.312 30.4945L33.601 29.8569L33.89 29.2194L26.39 25.8199L26.101 26.4575Z" fill="#BE8069" mask="url(#path-15-inside-7_7_585)"/>
<mask id="path-17-inside-8_7_585" fill="white">
<path d="M33.601 23.7057H26.101V27.1051L33.601 23.7057Z"/>
</mask>
<path d="M33.601 23.7057H26.101V27.1051L33.601 23.7057Z" fill="white" fill-opacity="0.1"/>
<path d="M33.601 23.7057V23.0057L33.89 24.3433L33.601 23.7057ZM26.101 23.7057H25.401V23.0057H26.101V23.7057ZM26.101 27.1051L26.39 27.7427L25.401 28.191V27.1051H26.101ZM33.601 23.7057V24.4057H26.101V23.7057V23.0057H33.601V23.7057ZM26.101 23.7057H26.801V27.1051H26.101H25.401V23.7057H26.101ZM26.101 27.1051L25.812 26.4676L33.312 23.0682L33.601 23.7057L33.89 24.3433L26.39 27.7427L26.101 27.1051Z" fill="#BE8069" mask="url(#path-17-inside-8_7_585)"/>
<rect x="21.8978" y="25.4315" width="3.09437" height="2.7398" fill="white" fill-opacity="0.1" stroke="#BE8069" stroke-width="0.7"/>
<path d="M3.14062 12.5611L0 14.943V10.1793L3.14062 12.5611Z" fill="#BE8069"/>
<path d="M9.59961 12.5513L0 20.3032V17.8647L6.38477 12.7095L0 7.55321V4.7993L9.59961 12.5513Z" fill="#BE8069"/>
<path d="M18 42.8466L16.3389 44.2225L0 30.6708V27.9169L18 42.8466Z" fill="#BE8069"/>
<path d="M18 10.6753L0 25.605V22.8511L16.3389 9.2993L18 10.6753Z" fill="#BE8069"/>
<path d="M43.6594 12.5611L46.8 14.943V10.1793L43.6594 12.5611Z" fill="#BE8069"/>
<path d="M37.2004 12.5513L46.8 20.3032V17.8647L40.4152 12.7095L46.8 7.55321V4.7993L37.2004 12.5513Z" fill="#BE8069"/>
<path d="M43.6594 41.4568L46.8 43.8387V39.075L43.6594 41.4568Z" fill="#BE8069"/>
<path d="M37.2004 41.4469L46.8 49.1989V46.7604L40.4152 41.6051L46.8 36.4489V33.695L37.2004 41.4469Z" fill="#BE8069"/>
<path d="M28.8 42.8466L30.4611 44.2225L46.8 30.6708V27.9169L28.8 42.8466Z" fill="#BE8069"/>
<path d="M28.8 10.6753L46.8 25.605V22.8511L30.4611 9.2993L28.8 10.6753Z" fill="#BE8069"/>
<path d="M3.14062 41.4568L0 43.8387V39.075L3.14062 41.4568Z" fill="#BE8069"/>
<path d="M9.59961 41.4469L0 49.1989V46.7604L6.38477 41.6051L0 36.4489V33.695L9.59961 41.4469Z" fill="#BE8069"/>
<path d="M0 51.6H46.8" stroke="#BE8069"/>
<path d="M0 2.39999H46.8" stroke="#BE8069"/>
<path d="M116.977 9.4243L97.2004 26.7612L116.977 44.0981L118.801 42.4995L100.849 26.7612L118.801 11.0239L116.977 9.4243Z" fill="#BE8069"/>
<path d="M117.023 9.4243L136.8 26.7612L117.023 44.0981L115.199 42.4995L133.151 26.7612L115.199 11.0239L117.023 9.4243Z" fill="#BE8069"/>
<mask id="path-36-inside-9_7_585" fill="white">
<path d="M113.63 36.0081V29.2093H117.38L113.63 36.0081Z"/>
</mask>
<path d="M113.63 36.0081V29.2093H117.38L113.63 36.0081Z" fill="white" fill-opacity="0.1"/>
<path d="M113.63 36.0081H112.93L114.243 36.3462L113.63 36.0081ZM113.63 29.2093V28.5093H112.93V29.2093H113.63ZM117.38 29.2093L117.993 29.5474L118.565 28.5093H117.38V29.2093ZM113.63 36.0081H114.33V29.2093H113.63H112.93V36.0081H113.63ZM113.63 29.2093V29.9093H117.38V29.2093V28.5093H113.63V29.2093ZM117.38 29.2093L116.767 28.8712L113.017 35.6701L113.63 36.0081L114.243 36.3462L117.993 29.5474L117.38 29.2093Z" fill="#BE8069" mask="url(#path-36-inside-9_7_585)"/>
<mask id="path-38-inside-10_7_585" fill="white">
<path d="M120.326 36.0081V29.2093H116.666L120.326 36.0081Z"/>
</mask>
<path d="M120.326 36.0081V29.2093H116.666L120.326 36.0081Z" fill="white" fill-opacity="0.1"/>
<path d="M120.326 36.0081H121.026L119.709 36.34L120.326 36.0081ZM120.326 29.2093V28.5093H121.026V29.2093H120.326ZM116.666 29.2093L116.049 29.5411L115.494 28.5093H116.666V29.2093ZM120.326 36.0081H119.626V29.2093H120.326H121.026V36.0081H120.326ZM120.326 29.2093V29.9093H116.666V29.2093V28.5093H120.326V29.2093ZM116.666 29.2093L117.282 28.8775L120.942 35.6763L120.326 36.0081L119.709 36.34L116.049 29.5411L116.666 29.2093Z" fill="#BE8069" mask="url(#path-38-inside-10_7_585)"/>
<mask id="path-40-inside-11_7_585" fill="white">
<path d="M120.55 17.5142V24.313H116.8L120.55 17.5142Z"/>
</mask>
<path d="M120.55 17.5142V24.313H116.8L120.55 17.5142Z" fill="white" fill-opacity="0.1"/>
<path d="M120.55 17.5142H121.25L119.937 17.1761L120.55 17.5142ZM120.55 24.313V25.013H121.25V24.313H120.55ZM116.8 24.313L116.187 23.9749L115.614 25.013H116.8V24.313ZM120.55 17.5142H119.85V24.313H120.55H121.25V17.5142H120.55ZM120.55 24.313V23.613H116.8V24.313V25.013H120.55V24.313ZM116.8 24.313L117.413 24.6511L121.163 17.8522L120.55 17.5142L119.937 17.1761L116.187 23.9749L116.8 24.313Z" fill="#BE8069" mask="url(#path-40-inside-11_7_585)"/>
<mask id="path-42-inside-12_7_585" fill="white">
<path d="M113.764 17.5142V24.313H117.514L113.764 17.5142Z"/>
</mask>
<path d="M113.764 17.5142V24.313H117.514L113.764 17.5142Z" fill="white" fill-opacity="0.1"/>
<path d="M113.764 17.5142H113.064L114.377 17.1761L113.764 17.5142ZM113.764 24.313V25.013H113.064V24.313H113.764ZM117.514 24.313L118.127 23.9749L118.7 25.013H117.514V24.313ZM113.764 17.5142H114.464V24.313H113.764H113.064V17.5142H113.764ZM113.764 24.313V23.613H117.514V24.313V25.013H113.764V24.313ZM117.514 24.313L116.901 24.6511L113.151 17.8522L113.764 17.5142L114.377 17.1761L118.127 23.9749L117.514 24.313Z" fill="#BE8069" mask="url(#path-42-inside-12_7_585)"/>
<mask id="path-44-inside-13_7_585" fill="white">
<path d="M106.8 23.7056H114.3V27.7124L106.8 23.7056Z"/>
</mask>
<path d="M106.8 23.7056H114.3V27.7124L106.8 23.7056Z" fill="white" fill-opacity="0.1"/>
<path d="M106.8 23.7056V23.0056L106.47 24.323L106.8 23.7056ZM114.3 23.7056H115V23.0056H114.3V23.7056ZM114.3 27.7124L113.97 28.3299L115 28.8801V27.7124H114.3ZM106.8 23.7056V24.4056H114.3V23.7056V23.0056H106.8V23.7056ZM114.3 23.7056H113.6V27.7124H114.3H115V23.7056H114.3ZM114.3 27.7124L114.63 27.095L107.13 23.0882L106.8 23.7056L106.47 24.323L113.97 28.3299L114.3 27.7124Z" fill="#BE8069" mask="url(#path-44-inside-13_7_585)"/>
<mask id="path-46-inside-14_7_585" fill="white">
<path d="M106.8 29.9786H114.3V26.5792L106.8 29.9786Z"/>
</mask>
<path d="M106.8 29.9786H114.3V26.5792L106.8 29.9786Z" fill="white" fill-opacity="0.1"/>
<path d="M106.8 29.9786V30.6786L106.511 29.341L106.8 29.9786ZM114.3 29.9786H115V30.6786H114.3V29.9786ZM114.3 26.5792L114.011 25.9416L115 25.4934V26.5792H114.3ZM106.8 29.9786V29.2786H114.3V29.9786V30.6786H106.8V29.9786ZM114.3 29.9786H113.6V26.5792H114.3H115V29.9786H114.3ZM114.3 26.5792L114.589 27.2168L107.089 30.6162L106.8 29.9786L106.511 29.341L114.011 25.9416L114.3 26.5792Z" fill="#BE8069" mask="url(#path-46-inside-14_7_585)"/>
<mask id="path-48-inside-15_7_585" fill="white">
<path d="M127.201 29.8569H119.701V26.4575L127.201 29.8569Z"/>
</mask>
<path d="M127.201 29.8569H119.701V26.4575L127.201 29.8569Z" fill="white" fill-opacity="0.1"/>
<path d="M127.201 29.8569V30.5569L127.49 29.2194L127.201 29.8569ZM119.701 29.8569H119.001V30.5569H119.701V29.8569ZM119.701 26.4575L119.99 25.8199L119.001 25.3717V26.4575H119.701ZM127.201 29.8569V29.1569H119.701V29.8569V30.5569H127.201V29.8569ZM119.701 29.8569H120.401V26.4575H119.701H119.001V29.8569H119.701ZM119.701 26.4575L119.412 27.0951L126.912 30.4945L127.201 29.8569L127.49 29.2194L119.99 25.8199L119.701 26.4575Z" fill="#BE8069" mask="url(#path-48-inside-15_7_585)"/>
<mask id="path-50-inside-16_7_585" fill="white">
<path d="M127.201 23.7057H119.701V27.1051L127.201 23.7057Z"/>
</mask>
<path d="M127.201 23.7057H119.701V27.1051L127.201 23.7057Z" fill="white" fill-opacity="0.1"/>
<path d="M127.201 23.7057V23.0057L127.49 24.3433L127.201 23.7057ZM119.701 23.7057H119.001V23.0057H119.701V23.7057ZM119.701 27.1051L119.99 27.7427L119.001 28.191V27.1051H119.701ZM127.201 23.7057V24.4057H119.701V23.7057V23.0057H127.201V23.7057ZM119.701 23.7057H120.401V27.1051H119.701H119.001V23.7057H119.701ZM119.701 27.1051L119.412 26.4676L126.912 23.0682L127.201 23.7057L127.49 24.3433L119.99 27.7427L119.701 27.1051Z" fill="#BE8069" mask="url(#path-50-inside-16_7_585)"/>
<rect x="115.498" y="25.4315" width="3.09437" height="2.7398" fill="white" fill-opacity="0.1" stroke="#BE8069" stroke-width="0.7"/>
<path d="M96.7406 12.5611L93.6 14.943V10.1793L96.7406 12.5611Z" fill="#BE8069"/>
<path d="M103.2 12.5513L93.6 20.3032V17.8647L99.9848 12.7095L93.6 7.55321V4.7993L103.2 12.5513Z" fill="#BE8069"/>
<path d="M96.7406 41.4568L93.6 43.8387V39.075L96.7406 41.4568Z" fill="#BE8069"/>
<path d="M103.2 41.4469L93.6 49.1989V46.7604L99.9848 41.6051L93.6 36.4489V33.695L103.2 41.4469Z" fill="#BE8069"/>
<path d="M111.6 42.8466L109.939 44.2225L93.6 30.6708V27.9169L111.6 42.8466Z" fill="#BE8069"/>
<path d="M111.6 10.6753L93.6 25.605V22.8511L109.939 9.2993L111.6 10.6753Z" fill="#BE8069"/>
<path d="M137.259 12.5611L140.4 14.943V10.1793L137.259 12.5611Z" fill="#BE8069"/>
<path d="M130.8 12.5513L140.4 20.3032V17.8647L134.015 12.7095L140.4 7.55321V4.7993L130.8 12.5513Z" fill="#BE8069"/>
<path d="M137.259 41.4568L140.4 43.8387V39.075L137.259 41.4568Z" fill="#BE8069"/>
<path d="M130.8 41.4469L140.4 49.1989V46.7604L134.015 41.6051L140.4 36.4489V33.695L130.8 41.4469Z" fill="#BE8069"/>
<path d="M122.4 42.8466L124.061 44.2225L140.4 30.6708V27.9169L122.4 42.8466Z" fill="#BE8069"/>
<path d="M122.4 10.6753L140.4 25.605V22.8511L124.061 9.2993L122.4 10.6753Z" fill="#BE8069"/>
<path d="M93.6 51.6H140.4" stroke="#BE8069"/>
<path d="M93.6 2.39999H140.4" stroke="#BE8069"/>
<path d="M70.1768 9.4243L50.4004 26.7612L70.1768 44.0981L72.001 42.4995L54.0488 26.7612L72.001 11.0239L70.1768 9.4243Z" fill="#BE8069"/>
<path d="M70.2232 9.4243L89.9996 26.7612L70.2232 44.0981L68.399 42.4995L86.3512 26.7612L68.399 11.0239L70.2232 9.4243Z" fill="#BE8069"/>
<mask id="path-69-inside-17_7_585" fill="white">
<path d="M66.83 36.0081V29.2093H70.58L66.83 36.0081Z"/>
</mask>
<path d="M66.83 36.0081V29.2093H70.58L66.83 36.0081Z" fill="white" fill-opacity="0.1"/>
<path d="M66.83 36.0081H66.13L67.4429 36.3462L66.83 36.0081ZM66.83 29.2093V28.5093H66.13V29.2093H66.83ZM70.58 29.2093L71.1929 29.5474L71.7655 28.5093H70.58V29.2093ZM66.83 36.0081H67.53V29.2093H66.83H66.13V36.0081H66.83ZM66.83 29.2093V29.9093H70.58V29.2093V28.5093H66.83V29.2093ZM70.58 29.2093L69.967 28.8712L66.217 35.6701L66.83 36.0081L67.4429 36.3462L71.1929 29.5474L70.58 29.2093Z" fill="#BE8069" mask="url(#path-69-inside-17_7_585)"/>
<mask id="path-71-inside-18_7_585" fill="white">
<path d="M73.5257 36.0081V29.2093H69.8656L73.5257 36.0081Z"/>
</mask>
<path d="M73.5257 36.0081V29.2093H69.8656L73.5257 36.0081Z" fill="white" fill-opacity="0.1"/>
<path d="M73.5257 36.0081H74.2257L72.9094 36.34L73.5257 36.0081ZM73.5257 29.2093V28.5093H74.2257V29.2093H73.5257ZM69.8656 29.2093L69.2492 29.5411L68.6937 28.5093H69.8656V29.2093ZM73.5257 36.0081H72.8257V29.2093H73.5257H74.2257V36.0081H73.5257ZM73.5257 29.2093V29.9093H69.8656V29.2093V28.5093H73.5257V29.2093ZM69.8656 29.2093L70.4819 28.8775L74.1421 35.6763L73.5257 36.0081L72.9094 36.34L69.2492 29.5411L69.8656 29.2093Z" fill="#BE8069" mask="url(#path-71-inside-18_7_585)"/>
<mask id="path-73-inside-19_7_585" fill="white">
<path d="M73.7499 17.5142V24.313H69.9999L73.7499 17.5142Z"/>
</mask>
<path d="M73.7499 17.5142V24.313H69.9999L73.7499 17.5142Z" fill="white" fill-opacity="0.1"/>
<path d="M73.7499 17.5142H74.4499L73.1369 17.1761L73.7499 17.5142ZM73.7499 24.313V25.013H74.4499V24.313H73.7499ZM69.9999 24.313L69.3869 23.9749L68.8144 25.013H69.9999V24.313ZM73.7499 17.5142H73.0499V24.313H73.7499H74.4499V17.5142H73.7499ZM73.7499 24.313V23.613H69.9999V24.313V25.013H73.7499V24.313ZM69.9999 24.313L70.6128 24.6511L74.3628 17.8522L73.7499 17.5142L73.1369 17.1761L69.3869 23.9749L69.9999 24.313Z" fill="#BE8069" mask="url(#path-73-inside-19_7_585)"/>
<mask id="path-75-inside-20_7_585" fill="white">
<path d="M66.9642 17.5142V24.313H70.7142L66.9642 17.5142Z"/>
</mask>
<path d="M66.9642 17.5142V24.313H70.7142L66.9642 17.5142Z" fill="white" fill-opacity="0.1"/>
<path d="M66.9642 17.5142H66.2642L67.5772 17.1761L66.9642 17.5142ZM66.9642 24.313V25.013H66.2642V24.313H66.9642ZM70.7142 24.313L71.3272 23.9749L71.8997 25.013H70.7142V24.313ZM66.9642 17.5142H67.6642V24.313H66.9642H66.2642V17.5142H66.9642ZM66.9642 24.313V23.613H70.7142V24.313V25.013H66.9642V24.313ZM70.7142 24.313L70.1013 24.6511L66.3513 17.8522L66.9642 17.5142L67.5772 17.1761L71.3272 23.9749L70.7142 24.313Z" fill="#BE8069" mask="url(#path-75-inside-20_7_585)"/>
<mask id="path-77-inside-21_7_585" fill="white">
<path d="M60 23.7056H67.5V27.7124L60 23.7056Z"/>
</mask>
<path d="M60 23.7056H67.5V27.7124L60 23.7056Z" fill="white" fill-opacity="0.1"/>
<path d="M60 23.7056V23.0056L59.6702 24.323L60 23.7056ZM67.5 23.7056H68.2V23.0056H67.5V23.7056ZM67.5 27.7124L67.1702 28.3299L68.2 28.8801V27.7124H67.5ZM60 23.7056V24.4056H67.5V23.7056V23.0056H60V23.7056ZM67.5 23.7056H66.8V27.7124H67.5H68.2V23.7056H67.5ZM67.5 27.7124L67.8298 27.095L60.3298 23.0882L60 23.7056L59.6702 24.323L67.1702 28.3299L67.5 27.7124Z" fill="#BE8069" mask="url(#path-77-inside-21_7_585)"/>
<mask id="path-79-inside-22_7_585" fill="white">
<path d="M60 29.9786H67.5V26.5792L60 29.9786Z"/>
</mask>
<path d="M60 29.9786H67.5V26.5792L60 29.9786Z" fill="white" fill-opacity="0.1"/>
<path d="M60 29.9786V30.6786L59.711 29.341L60 29.9786ZM67.5 29.9786H68.2V30.6786H67.5V29.9786ZM67.5 26.5792L67.211 25.9416L68.2 25.4934V26.5792H67.5ZM60 29.9786V29.2786H67.5V29.9786V30.6786H60V29.9786ZM67.5 29.9786H66.8V26.5792H67.5H68.2V29.9786H67.5ZM67.5 26.5792L67.789 27.2168L60.289 30.6162L60 29.9786L59.711 29.341L67.211 25.9416L67.5 26.5792Z" fill="#BE8069" mask="url(#path-79-inside-22_7_585)"/>
<mask id="path-81-inside-23_7_585" fill="white">
<path d="M80.401 29.8569H72.901V26.4575L80.401 29.8569Z"/>
</mask>
<path d="M80.401 29.8569H72.901V26.4575L80.401 29.8569Z" fill="white" fill-opacity="0.1"/>
<path d="M80.401 29.8569V30.5569L80.69 29.2194L80.401 29.8569ZM72.901 29.8569H72.201V30.5569H72.901V29.8569ZM72.901 26.4575L73.19 25.8199L72.201 25.3717V26.4575H72.901ZM80.401 29.8569V29.1569H72.901V29.8569V30.5569H80.401V29.8569ZM72.901 29.8569H73.601V26.4575H72.901H72.201V29.8569H72.901ZM72.901 26.4575L72.6121 27.0951L80.1121 30.4945L80.401 29.8569L80.69 29.2194L73.19 25.8199L72.901 26.4575Z" fill="#BE8069" mask="url(#path-81-inside-23_7_585)"/>
<mask id="path-83-inside-24_7_585" fill="white">
<path d="M80.401 23.7057H72.901V27.1051L80.401 23.7057Z"/>
</mask>
<path d="M80.401 23.7057H72.901V27.1051L80.401 23.7057Z" fill="white" fill-opacity="0.1"/>
<path d="M80.401 23.7057V23.0057L80.69 24.3433L80.401 23.7057ZM72.901 23.7057H72.201V23.0057H72.901V23.7057ZM72.901 27.1051L73.19 27.7427L72.201 28.191V27.1051H72.901ZM80.401 23.7057V24.4057H72.901V23.7057V23.0057H80.401V23.7057ZM72.901 23.7057H73.601V27.1051H72.901H72.201V23.7057H72.901ZM72.901 27.1051L72.6121 26.4676L80.1121 23.0682L80.401 23.7057L80.69 24.3433L73.19 27.7427L72.901 27.1051Z" fill="#BE8069" mask="url(#path-83-inside-24_7_585)"/>
<rect x="68.6978" y="25.4315" width="3.09437" height="2.7398" fill="white" fill-opacity="0.1" stroke="#BE8069" stroke-width="0.7"/>
<path d="M64.8 42.8466L63.1389 44.2225L46.8 30.6708V27.9169L64.8 42.8466Z" fill="#BE8069"/>
<path d="M64.8 10.6753L46.8 25.605V22.8511L63.1389 9.2993L64.8 10.6753Z" fill="#BE8069"/>
<path d="M90.4594 12.5611L93.6 14.943V10.1793L90.4594 12.5611Z" fill="#BE8069"/>
<path d="M84.0004 12.5513L93.6 20.3032V17.8647L87.2152 12.7095L93.6 7.55321V4.7993L84.0004 12.5513Z" fill="#BE8069"/>
<path d="M90.4594 41.4568L93.6 43.8387V39.075L90.4594 41.4568Z" fill="#BE8069"/>
<path d="M84.0004 41.4469L93.6 49.1989V46.7604L87.2152 41.6051L93.6 36.4489V33.695L84.0004 41.4469Z" fill="#BE8069"/>
<path d="M75.6 42.8466L77.2611 44.2225L93.6 30.6708V27.9169L75.6 42.8466Z" fill="#BE8069"/>
<path d="M75.6 10.6753L93.6 25.605V22.8511L77.2611 9.2993L75.6 10.6753Z" fill="#BE8069"/>
<path d="M49.9406 12.5611L46.8 14.943V10.1793L49.9406 12.5611Z" fill="#BE8069"/>
<path d="M56.3996 12.5513L46.8 20.3032V17.8647L53.1848 12.7095L46.8 7.55321V4.7993L56.3996 12.5513Z" fill="#BE8069"/>
<path d="M49.9406 41.4568L46.8 43.8387V39.075L49.9406 41.4568Z" fill="#BE8069"/>
<path d="M56.3996 41.4469L46.8 49.1989V46.7604L53.1848 41.6051L46.8 36.4489V33.695L56.3996 41.4469Z" fill="#BE8069"/>
<path d="M46.8 51.6H93.6" stroke="#BE8069"/>
<path d="M46.8 2.39999H93.6" stroke="#BE8069"/>
</svg>
