<svg width="117" height="45" viewBox="0 0 117 45" fill="none" xmlns="http://www.w3.org/2000/svg">
<path d="M19.4805 7.85391L3 22.3012L19.4805 36.7484L21 35.4164L6.04004 22.3012L21 9.18692L19.4805 7.85391Z" fill="#471616"/>
<path d="M19.5195 7.85391L36 22.3012L19.5195 36.7484L18 35.4164L32.96 22.3012L18 9.18692L19.5195 7.85391Z" fill="#471616"/>
<mask id="path-3-inside-1_7_584" fill="white">
<path d="M16.6916 30.0071V24.3411H19.8166L16.6916 30.0071Z"/>
</mask>
<path d="M16.6916 30.0071V24.3411H19.8166L16.6916 30.0071Z" fill="white" fill-opacity="0.1"/>
<path d="M16.6916 30.0071H15.9916L17.3046 30.3452L16.6916 30.0071ZM16.6916 24.3411V23.6411H15.9916V24.3411H16.6916ZM19.8166 24.3411L20.4296 24.6792L21.0021 23.6411H19.8166V24.3411ZM16.6916 30.0071H17.3916V24.3411H16.6916H15.9916V30.0071H16.6916ZM16.6916 24.3411V25.0411H19.8166V24.3411V23.6411H16.6916V24.3411ZM19.8166 24.3411L19.2037 24.003L16.0787 29.669L16.6916 30.0071L17.3046 30.3452L20.4296 24.6792L19.8166 24.3411Z" fill="#471616" mask="url(#path-3-inside-1_7_584)"/>
<mask id="path-5-inside-2_7_584" fill="white">
<path d="M22.2711 30.0071V24.3411H19.2213L22.2711 30.0071Z"/>
</mask>
<path d="M22.2711 30.0071V24.3411H19.2213L22.2711 30.0071Z" fill="white" fill-opacity="0.1"/>
<path d="M22.2711 30.0071H22.9711L21.6547 30.3389L22.2711 30.0071ZM22.2711 24.3411V23.6411H22.9711V24.3411H22.2711ZM19.2213 24.3411L18.6049 24.6729L18.0496 23.6411H19.2213V24.3411ZM22.2711 30.0071H21.5711V24.3411H22.2711H22.9711V30.0071H22.2711ZM22.2711 24.3411V25.0411H19.2213V24.3411V23.6411H22.2711V24.3411ZM19.2213 24.3411L19.8377 24.0093L22.8875 29.6753L22.2711 30.0071L21.6547 30.3389L18.6049 24.6729L19.2213 24.3411Z" fill="#471616" mask="url(#path-5-inside-2_7_584)"/>
<mask id="path-7-inside-3_7_584" fill="white">
<path d="M22.4582 14.5948V20.2608H19.3332L22.4582 14.5948Z"/>
</mask>
<path d="M22.4582 14.5948V20.2608H19.3332L22.4582 14.5948Z" fill="white" fill-opacity="0.1"/>
<path d="M22.4582 14.5948H23.1582L21.8453 14.2567L22.4582 14.5948ZM22.4582 20.2608V20.9608H23.1582V20.2608H22.4582ZM19.3332 20.2608L18.7203 19.9228L18.1477 20.9608H19.3332V20.2608ZM22.4582 14.5948H21.7582V20.2608H22.4582H23.1582V14.5948H22.4582ZM22.4582 20.2608V19.5608H19.3332V20.2608V20.9608H22.4582V20.2608ZM19.3332 20.2608L19.9462 20.5989L23.0712 14.9329L22.4582 14.5948L21.8453 14.2567L18.7203 19.9228L19.3332 20.2608Z" fill="#471616" mask="url(#path-7-inside-3_7_584)"/>
<mask id="path-9-inside-4_7_584" fill="white">
<path d="M16.8035 14.5948V20.2608H19.9285L16.8035 14.5948Z"/>
</mask>
<path d="M16.8035 14.5948V20.2608H19.9285L16.8035 14.5948Z" fill="white" fill-opacity="0.1"/>
<path d="M16.8035 14.5948H16.1035L17.4165 14.2567L16.8035 14.5948ZM16.8035 20.2608V20.9608H16.1035V20.2608H16.8035ZM19.9285 20.2608L20.5415 19.9228L21.114 20.9608H19.9285V20.2608ZM16.8035 14.5948H17.5035V20.2608H16.8035H16.1035V14.5948H16.8035ZM16.8035 20.2608V19.5608H19.9285V20.2608V20.9608H16.8035V20.2608ZM19.9285 20.2608L19.3156 20.5989L16.1906 14.9329L16.8035 14.5948L17.4165 14.2567L20.5415 19.9228L19.9285 20.2608Z" fill="#471616" mask="url(#path-9-inside-4_7_584)"/>
<mask id="path-11-inside-5_7_584" fill="white">
<path d="M11 19.7548H17.25V23.0937L11 19.7548Z"/>
</mask>
<path d="M11 19.7548H17.25V23.0937L11 19.7548Z" fill="white" fill-opacity="0.1"/>
<path d="M11 19.7548V19.0548L10.6702 20.3723L11 19.7548ZM17.25 19.7548H17.95V19.0548H17.25V19.7548ZM17.25 23.0937L16.9202 23.7111L17.95 24.2613V23.0937H17.25ZM11 19.7548V20.4548H17.25V19.7548V19.0548H11V19.7548ZM17.25 19.7548H16.55V23.0937H17.25H17.95V19.7548H17.25ZM17.25 23.0937L17.5798 22.4763L11.3298 19.1374L11 19.7548L10.6702 20.3723L16.9202 23.7111L17.25 23.0937Z" fill="#471616" mask="url(#path-11-inside-5_7_584)"/>
<mask id="path-13-inside-6_7_584" fill="white">
<path d="M11 24.9823H17.25V22.1493L11 24.9823Z"/>
</mask>
<path d="M11 24.9823H17.25V22.1493L11 24.9823Z" fill="white" fill-opacity="0.1"/>
<path d="M11 24.9823V25.6823L10.711 24.3448L11 24.9823ZM17.25 24.9823H17.95V25.6823H17.25V24.9823ZM17.25 22.1493L16.961 21.5118L17.95 21.0635V22.1493H17.25ZM11 24.9823V24.2823H17.25V24.9823V25.6823H11V24.9823ZM17.25 24.9823H16.55V22.1493H17.25H17.95V24.9823H17.25ZM17.25 22.1493L17.539 22.7869L11.289 25.6199L11 24.9823L10.711 24.3448L16.961 21.5118L17.25 22.1493Z" fill="#471616" mask="url(#path-13-inside-6_7_584)"/>
<mask id="path-15-inside-7_7_584" fill="white">
<path d="M28.0009 24.8809H21.7509V22.0479L28.0009 24.8809Z"/>
</mask>
<path d="M28.0009 24.8809H21.7509V22.0479L28.0009 24.8809Z" fill="white" fill-opacity="0.1"/>
<path d="M28.0009 24.8809V25.5809L28.2898 24.2434L28.0009 24.8809ZM21.7509 24.8809H21.0509V25.5809H21.7509V24.8809ZM21.7509 22.0479L22.0398 21.4104L21.0509 20.9621V22.0479H21.7509ZM28.0009 24.8809V24.1809H21.7509V24.8809V25.5809H28.0009V24.8809ZM21.7509 24.8809H22.4509V22.0479H21.7509H21.0509V24.8809H21.7509ZM21.7509 22.0479L21.4619 22.6855L27.7119 25.5185L28.0009 24.8809L28.2898 24.2434L22.0398 21.4104L21.7509 22.0479Z" fill="#471616" mask="url(#path-15-inside-7_7_584)"/>
<mask id="path-17-inside-8_7_584" fill="white">
<path d="M28.0009 19.7546H21.7509V22.5876L28.0009 19.7546Z"/>
</mask>
<path d="M28.0009 19.7546H21.7509V22.5876L28.0009 19.7546Z" fill="white" fill-opacity="0.1"/>
<path d="M28.0009 19.7546V19.0546L28.2898 20.3922L28.0009 19.7546ZM21.7509 19.7546H21.0509V19.0546H21.7509V19.7546ZM21.7509 22.5876L22.0398 23.2252L21.0509 23.6735V22.5876H21.7509ZM28.0009 19.7546V20.4546H21.7509V19.7546V19.0546H28.0009V19.7546ZM21.7509 19.7546H22.4509V22.5876H21.7509H21.0509V19.7546H21.7509ZM21.7509 22.5876L21.4619 21.9501L27.7119 19.117L28.0009 19.7546L28.2898 20.3922L22.0398 23.2252L21.7509 22.5876Z" fill="#471616" mask="url(#path-17-inside-8_7_584)"/>
<rect x="18.3065" y="21.2513" width="2.46198" height="2.1665" fill="white" fill-opacity="0.1" stroke="#471616" stroke-width="0.7"/>
<path d="M6 10.7226L0 15.6533V5.79295L6 10.7226Z" fill="#B84A4A"/>
<path d="M2.61719 10.4681L0 12.4525V8.48274L2.61719 10.4681Z" fill="#471616"/>
<path d="M8 10.4594L0 16.9203V14.8881L5.32031 10.5912L0 6.29337V3.99942L8 10.4594Z" fill="#471616"/>
<path d="M6 34.8024L0 39.733V29.8727L6 34.8024Z" fill="#B84A4A"/>
<path d="M2.61719 34.5478L0 36.5322V32.5625L2.61719 34.5478Z" fill="#471616"/>
<path d="M8 34.5391L0 41.0001V38.9678L5.32031 34.671L0 30.3731V28.0792L8 34.5391Z" fill="#471616"/>
<path d="M15 35.7045L13.6162 36.852L0 25.559V23.2641L15 35.7045Z" fill="#471616"/>
<path d="M15 8.8959L0 21.3373V19.0424L13.6162 7.74942L15 8.8959Z" fill="#471616"/>
<path d="M33 10.7226L39 15.6533V5.79295L33 10.7226Z" fill="#B84A4A"/>
<path d="M36.3828 10.4681L39 12.4525V8.48274L36.3828 10.4681Z" fill="#471616"/>
<path d="M31 10.4594L39 16.9203V14.8881L33.6797 10.5912L39 6.29337V3.99942L31 10.4594Z" fill="#471616"/>
<path d="M33 34.8024L39 39.733V29.8727L33 34.8024Z" fill="#B84A4A"/>
<path d="M36.3828 34.5478L39 36.5322V32.5625L36.3828 34.5478Z" fill="#471616"/>
<path d="M31 34.5391L39 41.0001V38.9678L33.6797 34.671L39 30.3731V28.0792L31 34.5391Z" fill="#471616"/>
<path d="M24 35.7045L25.3838 36.852L39 25.559V23.2641L24 35.7045Z" fill="#471616"/>
<path d="M24 8.8959L39 21.3373V19.0424L25.3838 7.74942L24 8.8959Z" fill="#471616"/>
<path d="M6 10.7226L0 15.6533V5.79295L6 10.7226Z" fill="#B84A4A"/>
<path d="M2.61719 10.4681L0 12.4525V8.48274L2.61719 10.4681Z" fill="#471616"/>
<path d="M8 10.4594L0 16.9203V14.8881L5.32031 10.5912L0 6.29337V3.99942L8 10.4594Z" fill="#471616"/>
<path d="M6 34.8024L0 39.733V29.8727L6 34.8024Z" fill="#B84A4A"/>
<path d="M2.61719 34.5478L0 36.5322V32.5625L2.61719 34.5478Z" fill="#471616"/>
<path d="M8 34.5391L0 41.0001V38.9678L5.32031 34.671L0 30.3731V28.0792L8 34.5391Z" fill="#471616"/>
<mask id="path-42-inside-9_7_584" fill="white">
<path d="M15 35.4404L13.6162 36.5879L0 25.2949V23L15 35.4404Z"/>
</mask>
<path d="M15 35.4404L13.6162 36.5879L0 25.2949V23L15 35.4404Z" fill="#471616" fill-opacity="0.63"/>
<path d="M15 35.4404L15.6383 36.2102L16.5665 35.4405L15.6384 34.6707L15 35.4404ZM13.6162 36.5879L12.9778 37.3576L13.6161 37.887L14.2545 37.3577L13.6162 36.5879ZM0 25.2949H-1V25.7647L-0.638385 26.0646L0 25.2949ZM0 23L0.638379 22.2303L-1 20.8715V23H0ZM15 35.4404L14.3617 34.6707L12.9779 35.8181L13.6162 36.5879L14.2545 37.3577L15.6383 36.2102L15 35.4404ZM13.6162 36.5879L14.2546 35.8182L0.638385 24.5252L0 25.2949L-0.638385 26.0646L12.9778 37.3576L13.6162 36.5879ZM0 25.2949H1V23H0H-1V25.2949H0ZM0 23L-0.638379 23.7697L14.3616 36.2102L15 35.4404L15.6384 34.6707L0.638379 22.2303L0 23Z" fill="#471616" fill-opacity="0.16" mask="url(#path-42-inside-9_7_584)"/>
<path d="M15 8.99942L0 21.4398V19.1449L13.6162 7.85196L15 8.99942Z" fill="#471616" fill-opacity="0.58"/>
<path d="M0 43H39" stroke="#471616"/>
<path d="M0 2H39" stroke="#471616"/>
<path d="M97.4805 7.85391L81 22.3012L97.4805 36.7484L99 35.4164L84.04 22.3012L99 9.18692L97.4805 7.85391Z" fill="#471616"/>
<path d="M97.5195 7.85391L114 22.3012L97.5195 36.7484L96 35.4164L110.96 22.3012L96 9.18692L97.5195 7.85391Z" fill="#471616"/>
<mask id="path-49-inside-10_7_584" fill="white">
<path d="M94.6916 30.0071V24.3411H97.8166L94.6916 30.0071Z"/>
</mask>
<path d="M94.6916 30.0071V24.3411H97.8166L94.6916 30.0071Z" fill="white" fill-opacity="0.1"/>
<path d="M94.6916 30.0071H93.9916L95.3046 30.3452L94.6916 30.0071ZM94.6916 24.3411V23.6411H93.9916V24.3411H94.6916ZM97.8166 24.3411L98.4296 24.6792L99.0021 23.6411H97.8166V24.3411ZM94.6916 30.0071H95.3916V24.3411H94.6916H93.9916V30.0071H94.6916ZM94.6916 24.3411V25.0411H97.8166V24.3411V23.6411H94.6916V24.3411ZM97.8166 24.3411L97.2037 24.003L94.0787 29.669L94.6916 30.0071L95.3046 30.3452L98.4296 24.6792L97.8166 24.3411Z" fill="#471616" mask="url(#path-49-inside-10_7_584)"/>
<mask id="path-51-inside-11_7_584" fill="white">
<path d="M100.271 30.0071V24.3411H97.2213L100.271 30.0071Z"/>
</mask>
<path d="M100.271 30.0071V24.3411H97.2213L100.271 30.0071Z" fill="white" fill-opacity="0.1"/>
<path d="M100.271 30.0071H100.971L99.6547 30.3389L100.271 30.0071ZM100.271 24.3411V23.6411H100.971V24.3411H100.271ZM97.2213 24.3411L96.6049 24.6729L96.0496 23.6411H97.2213V24.3411ZM100.271 30.0071H99.5711V24.3411H100.271H100.971V30.0071H100.271ZM100.271 24.3411V25.0411H97.2213V24.3411V23.6411H100.271V24.3411ZM97.2213 24.3411L97.8377 24.0093L100.887 29.6753L100.271 30.0071L99.6547 30.3389L96.6049 24.6729L97.2213 24.3411Z" fill="#471616" mask="url(#path-51-inside-11_7_584)"/>
<mask id="path-53-inside-12_7_584" fill="white">
<path d="M100.458 14.5948V20.2608H97.3332L100.458 14.5948Z"/>
</mask>
<path d="M100.458 14.5948V20.2608H97.3332L100.458 14.5948Z" fill="white" fill-opacity="0.1"/>
<path d="M100.458 14.5948H101.158L99.8453 14.2567L100.458 14.5948ZM100.458 20.2608V20.9608H101.158V20.2608H100.458ZM97.3332 20.2608L96.7203 19.9228L96.1477 20.9608H97.3332V20.2608ZM100.458 14.5948H99.7582V20.2608H100.458H101.158V14.5948H100.458ZM100.458 20.2608V19.5608H97.3332V20.2608V20.9608H100.458V20.2608ZM97.3332 20.2608L97.9462 20.5989L101.071 14.9329L100.458 14.5948L99.8453 14.2567L96.7203 19.9228L97.3332 20.2608Z" fill="#471616" mask="url(#path-53-inside-12_7_584)"/>
<mask id="path-55-inside-13_7_584" fill="white">
<path d="M94.8035 14.5948V20.2608H97.9285L94.8035 14.5948Z"/>
</mask>
<path d="M94.8035 14.5948V20.2608H97.9285L94.8035 14.5948Z" fill="white" fill-opacity="0.1"/>
<path d="M94.8035 14.5948H94.1035L95.4165 14.2567L94.8035 14.5948ZM94.8035 20.2608V20.9608H94.1035V20.2608H94.8035ZM97.9285 20.2608L98.5415 19.9228L99.114 20.9608H97.9285V20.2608ZM94.8035 14.5948H95.5035V20.2608H94.8035H94.1035V14.5948H94.8035ZM94.8035 20.2608V19.5608H97.9285V20.2608V20.9608H94.8035V20.2608ZM97.9285 20.2608L97.3156 20.5989L94.1906 14.9329L94.8035 14.5948L95.4165 14.2567L98.5415 19.9228L97.9285 20.2608Z" fill="#471616" mask="url(#path-55-inside-13_7_584)"/>
<mask id="path-57-inside-14_7_584" fill="white">
<path d="M89 19.7548H95.25V23.0937L89 19.7548Z"/>
</mask>
<path d="M89 19.7548H95.25V23.0937L89 19.7548Z" fill="white" fill-opacity="0.1"/>
<path d="M89 19.7548V19.0548L88.6702 20.3723L89 19.7548ZM95.25 19.7548H95.95V19.0548H95.25V19.7548ZM95.25 23.0937L94.9202 23.7111L95.95 24.2613V23.0937H95.25ZM89 19.7548V20.4548H95.25V19.7548V19.0548H89V19.7548ZM95.25 19.7548H94.55V23.0937H95.25H95.95V19.7548H95.25ZM95.25 23.0937L95.5798 22.4763L89.3298 19.1374L89 19.7548L88.6702 20.3723L94.9202 23.7111L95.25 23.0937Z" fill="#471616" mask="url(#path-57-inside-14_7_584)"/>
<mask id="path-59-inside-15_7_584" fill="white">
<path d="M89 24.9823H95.25V22.1493L89 24.9823Z"/>
</mask>
<path d="M89 24.9823H95.25V22.1493L89 24.9823Z" fill="white" fill-opacity="0.1"/>
<path d="M89 24.9823V25.6823L88.711 24.3448L89 24.9823ZM95.25 24.9823H95.95V25.6823H95.25V24.9823ZM95.25 22.1493L94.961 21.5118L95.95 21.0635V22.1493H95.25ZM89 24.9823V24.2823H95.25V24.9823V25.6823H89V24.9823ZM95.25 24.9823H94.55V22.1493H95.25H95.95V24.9823H95.25ZM95.25 22.1493L95.539 22.7869L89.289 25.6199L89 24.9823L88.711 24.3448L94.961 21.5118L95.25 22.1493Z" fill="#471616" mask="url(#path-59-inside-15_7_584)"/>
<mask id="path-61-inside-16_7_584" fill="white">
<path d="M106.001 24.8809H99.7509V22.0479L106.001 24.8809Z"/>
</mask>
<path d="M106.001 24.8809H99.7509V22.0479L106.001 24.8809Z" fill="white" fill-opacity="0.1"/>
<path d="M106.001 24.8809V25.5809L106.29 24.2434L106.001 24.8809ZM99.7509 24.8809H99.0509V25.5809H99.7509V24.8809ZM99.7509 22.0479L100.04 21.4104L99.0509 20.9621V22.0479H99.7509ZM106.001 24.8809V24.1809H99.7509V24.8809V25.5809H106.001V24.8809ZM99.7509 24.8809H100.451V22.0479H99.7509H99.0509V24.8809H99.7509ZM99.7509 22.0479L99.4619 22.6855L105.712 25.5185L106.001 24.8809L106.29 24.2434L100.04 21.4104L99.7509 22.0479Z" fill="#471616" mask="url(#path-61-inside-16_7_584)"/>
<mask id="path-63-inside-17_7_584" fill="white">
<path d="M106.001 19.7546H99.7509V22.5876L106.001 19.7546Z"/>
</mask>
<path d="M106.001 19.7546H99.7509V22.5876L106.001 19.7546Z" fill="white" fill-opacity="0.1"/>
<path d="M106.001 19.7546V19.0546L106.29 20.3922L106.001 19.7546ZM99.7509 19.7546H99.0509V19.0546H99.7509V19.7546ZM99.7509 22.5876L100.04 23.2252L99.0509 23.6735V22.5876H99.7509ZM106.001 19.7546V20.4546H99.7509V19.7546V19.0546H106.001V19.7546ZM99.7509 19.7546H100.451V22.5876H99.7509H99.0509V19.7546H99.7509ZM99.7509 22.5876L99.4619 21.9501L105.712 19.117L106.001 19.7546L106.29 20.3922L100.04 23.2252L99.7509 22.5876Z" fill="#471616" mask="url(#path-63-inside-17_7_584)"/>
<rect x="96.3065" y="21.2513" width="2.46198" height="2.1665" fill="white" fill-opacity="0.1" stroke="#471616" stroke-width="0.7"/>
<path d="M84 10.7226L78 15.6533V5.79295L84 10.7226Z" fill="#B84A4A"/>
<path d="M80.6172 10.4681L78 12.4525V8.48274L80.6172 10.4681Z" fill="#471616"/>
<path d="M86 10.4594L78 16.9203V14.8881L83.3203 10.5912L78 6.29337V3.99942L86 10.4594Z" fill="#471616"/>
<path d="M84 34.8024L78 39.733V29.8727L84 34.8024Z" fill="#B84A4A"/>
<path d="M80.6172 34.5478L78 36.5322V32.5625L80.6172 34.5478Z" fill="#471616"/>
<path d="M86 34.5391L78 41.0001V38.9678L83.3203 34.671L78 30.3731V28.0792L86 34.5391Z" fill="#471616"/>
<path d="M93 35.7045L91.6162 36.852L78 25.559V23.2641L93 35.7045Z" fill="#471616"/>
<path d="M93 8.8959L78 21.3373V19.0424L91.6162 7.74942L93 8.8959Z" fill="#471616"/>
<path d="M111 10.7226L117 15.6533V5.79295L111 10.7226Z" fill="#B84A4A"/>
<path d="M114.383 10.4681L117 12.4525V8.48274L114.383 10.4681Z" fill="#471616"/>
<path d="M109 10.4594L117 16.9203V14.8881L111.68 10.5912L117 6.29337V3.99942L109 10.4594Z" fill="#471616"/>
<path d="M111 34.8024L117 39.733V29.8727L111 34.8024Z" fill="#B84A4A"/>
<path d="M114.383 34.5478L117 36.5322V32.5625L114.383 34.5478Z" fill="#471616"/>
<path d="M109 34.5391L117 41.0001V38.9678L111.68 34.671L117 30.3731V28.0792L109 34.5391Z" fill="#471616"/>
<path d="M102 35.7045L103.384 36.852L117 25.559V23.2641L102 35.7045Z" fill="#471616"/>
<path d="M102 8.8959L117 21.3373V19.0424L103.384 7.74942L102 8.8959Z" fill="#471616"/>
<path d="M84 10.7226L78 15.6533V5.79295L84 10.7226Z" fill="#B84A4A"/>
<path d="M80.6172 10.4681L78 12.4525V8.48274L80.6172 10.4681Z" fill="#471616"/>
<path d="M86 10.4594L78 16.9203V14.8881L83.3203 10.5912L78 6.29337V3.99942L86 10.4594Z" fill="#471616"/>
<path d="M84 34.8024L78 39.733V29.8727L84 34.8024Z" fill="#B84A4A"/>
<path d="M80.6172 34.5478L78 36.5322V32.5625L80.6172 34.5478Z" fill="#471616"/>
<path d="M86 34.5391L78 41.0001V38.9678L83.3203 34.671L78 30.3731V28.0792L86 34.5391Z" fill="#471616"/>
<path d="M93 35.7045L91.6162 36.852L78 25.559V23.2641L93 35.7045Z" fill="#471616"/>
<path d="M93 8.99942L78 21.4398V19.1449L91.6162 7.85196L93 8.99942Z" fill="#471616"/>
<path d="M78 43H117" stroke="#471616"/>
<path d="M78 2H117" stroke="#471616"/>
<path d="M58.4805 7.85391L42 22.3012L58.4805 36.7484L60 35.4164L45.04 22.3012L60 9.18692L58.4805 7.85391Z" fill="#471616"/>
<path d="M58.5195 7.85391L75 22.3012L58.5195 36.7484L57 35.4164L71.96 22.3012L57 9.18692L58.5195 7.85391Z" fill="#471616"/>
<mask id="path-94-inside-18_7_584" fill="white">
<path d="M55.6916 30.0071V24.3411H58.8166L55.6916 30.0071Z"/>
</mask>
<path d="M55.6916 30.0071V24.3411H58.8166L55.6916 30.0071Z" fill="white" fill-opacity="0.1"/>
<path d="M55.6916 30.0071H54.9916L56.3046 30.3452L55.6916 30.0071ZM55.6916 24.3411V23.6411H54.9916V24.3411H55.6916ZM58.8166 24.3411L59.4296 24.6792L60.0021 23.6411H58.8166V24.3411ZM55.6916 30.0071H56.3916V24.3411H55.6916H54.9916V30.0071H55.6916ZM55.6916 24.3411V25.0411H58.8166V24.3411V23.6411H55.6916V24.3411ZM58.8166 24.3411L58.2037 24.003L55.0787 29.669L55.6916 30.0071L56.3046 30.3452L59.4296 24.6792L58.8166 24.3411Z" fill="#471616" mask="url(#path-94-inside-18_7_584)"/>
<mask id="path-96-inside-19_7_584" fill="white">
<path d="M61.2711 30.0071V24.3411H58.2213L61.2711 30.0071Z"/>
</mask>
<path d="M61.2711 30.0071V24.3411H58.2213L61.2711 30.0071Z" fill="white" fill-opacity="0.1"/>
<path d="M61.2711 30.0071H61.9711L60.6547 30.3389L61.2711 30.0071ZM61.2711 24.3411V23.6411H61.9711V24.3411H61.2711ZM58.2213 24.3411L57.6049 24.6729L57.0496 23.6411H58.2213V24.3411ZM61.2711 30.0071H60.5711V24.3411H61.2711H61.9711V30.0071H61.2711ZM61.2711 24.3411V25.0411H58.2213V24.3411V23.6411H61.2711V24.3411ZM58.2213 24.3411L58.8377 24.0093L61.8875 29.6753L61.2711 30.0071L60.6547 30.3389L57.6049 24.6729L58.2213 24.3411Z" fill="#471616" mask="url(#path-96-inside-19_7_584)"/>
<mask id="path-98-inside-20_7_584" fill="white">
<path d="M61.4582 14.5948V20.2608H58.3332L61.4582 14.5948Z"/>
</mask>
<path d="M61.4582 14.5948V20.2608H58.3332L61.4582 14.5948Z" fill="white" fill-opacity="0.1"/>
<path d="M61.4582 14.5948H62.1582L60.8453 14.2567L61.4582 14.5948ZM61.4582 20.2608V20.9608H62.1582V20.2608H61.4582ZM58.3332 20.2608L57.7203 19.9228L57.1477 20.9608H58.3332V20.2608ZM61.4582 14.5948H60.7582V20.2608H61.4582H62.1582V14.5948H61.4582ZM61.4582 20.2608V19.5608H58.3332V20.2608V20.9608H61.4582V20.2608ZM58.3332 20.2608L58.9462 20.5989L62.0712 14.9329L61.4582 14.5948L60.8453 14.2567L57.7203 19.9228L58.3332 20.2608Z" fill="#471616" mask="url(#path-98-inside-20_7_584)"/>
<mask id="path-100-inside-21_7_584" fill="white">
<path d="M55.8035 14.5948V20.2608H58.9285L55.8035 14.5948Z"/>
</mask>
<path d="M55.8035 14.5948V20.2608H58.9285L55.8035 14.5948Z" fill="white" fill-opacity="0.1"/>
<path d="M55.8035 14.5948H55.1035L56.4165 14.2567L55.8035 14.5948ZM55.8035 20.2608V20.9608H55.1035V20.2608H55.8035ZM58.9285 20.2608L59.5415 19.9228L60.114 20.9608H58.9285V20.2608ZM55.8035 14.5948H56.5035V20.2608H55.8035H55.1035V14.5948H55.8035ZM55.8035 20.2608V19.5608H58.9285V20.2608V20.9608H55.8035V20.2608ZM58.9285 20.2608L58.3156 20.5989L55.1906 14.9329L55.8035 14.5948L56.4165 14.2567L59.5415 19.9228L58.9285 20.2608Z" fill="#471616" mask="url(#path-100-inside-21_7_584)"/>
<mask id="path-102-inside-22_7_584" fill="white">
<path d="M50 19.7548H56.25V23.0937L50 19.7548Z"/>
</mask>
<path d="M50 19.7548H56.25V23.0937L50 19.7548Z" fill="white" fill-opacity="0.1"/>
<path d="M50 19.7548V19.0548L49.6702 20.3723L50 19.7548ZM56.25 19.7548H56.95V19.0548H56.25V19.7548ZM56.25 23.0937L55.9202 23.7111L56.95 24.2613V23.0937H56.25ZM50 19.7548V20.4548H56.25V19.7548V19.0548H50V19.7548ZM56.25 19.7548H55.55V23.0937H56.25H56.95V19.7548H56.25ZM56.25 23.0937L56.5798 22.4763L50.3298 19.1374L50 19.7548L49.6702 20.3723L55.9202 23.7111L56.25 23.0937Z" fill="#471616" mask="url(#path-102-inside-22_7_584)"/>
<mask id="path-104-inside-23_7_584" fill="white">
<path d="M50 24.9823H56.25V22.1493L50 24.9823Z"/>
</mask>
<path d="M50 24.9823H56.25V22.1493L50 24.9823Z" fill="white" fill-opacity="0.1"/>
<path d="M50 24.9823V25.6823L49.711 24.3448L50 24.9823ZM56.25 24.9823H56.95V25.6823H56.25V24.9823ZM56.25 22.1493L55.961 21.5118L56.95 21.0635V22.1493H56.25ZM50 24.9823V24.2823H56.25V24.9823V25.6823H50V24.9823ZM56.25 24.9823H55.55V22.1493H56.25H56.95V24.9823H56.25ZM56.25 22.1493L56.539 22.7869L50.289 25.6199L50 24.9823L49.711 24.3448L55.961 21.5118L56.25 22.1493Z" fill="#471616" mask="url(#path-104-inside-23_7_584)"/>
<mask id="path-106-inside-24_7_584" fill="white">
<path d="M67.0009 24.8809H60.7509V22.0479L67.0009 24.8809Z"/>
</mask>
<path d="M67.0009 24.8809H60.7509V22.0479L67.0009 24.8809Z" fill="white" fill-opacity="0.1"/>
<path d="M67.0009 24.8809V25.5809L67.2898 24.2434L67.0009 24.8809ZM60.7509 24.8809H60.0509V25.5809H60.7509V24.8809ZM60.7509 22.0479L61.0398 21.4104L60.0509 20.9621V22.0479H60.7509ZM67.0009 24.8809V24.1809H60.7509V24.8809V25.5809H67.0009V24.8809ZM60.7509 24.8809H61.4509V22.0479H60.7509H60.0509V24.8809H60.7509ZM60.7509 22.0479L60.4619 22.6855L66.7119 25.5185L67.0009 24.8809L67.2898 24.2434L61.0398 21.4104L60.7509 22.0479Z" fill="#471616" mask="url(#path-106-inside-24_7_584)"/>
<mask id="path-108-inside-25_7_584" fill="white">
<path d="M67.0009 19.7546H60.7509V22.5876L67.0009 19.7546Z"/>
</mask>
<path d="M67.0009 19.7546H60.7509V22.5876L67.0009 19.7546Z" fill="white" fill-opacity="0.1"/>
<path d="M67.0009 19.7546V19.0546L67.2898 20.3922L67.0009 19.7546ZM60.7509 19.7546H60.0509V19.0546H60.7509V19.7546ZM60.7509 22.5876L61.0398 23.2252L60.0509 23.6735V22.5876H60.7509ZM67.0009 19.7546V20.4546H60.7509V19.7546V19.0546H67.0009V19.7546ZM60.7509 19.7546H61.4509V22.5876H60.7509H60.0509V19.7546H60.7509ZM60.7509 22.5876L60.4619 21.9501L66.7119 19.117L67.0009 19.7546L67.2898 20.3922L61.0398 23.2252L60.7509 22.5876Z" fill="#471616" mask="url(#path-108-inside-25_7_584)"/>
<rect x="57.3065" y="21.2513" width="2.46198" height="2.1665" fill="white" fill-opacity="0.1" stroke="#471616" stroke-width="0.7"/>
<path d="M45 10.7226L39 15.6533V5.79295L45 10.7226Z" fill="#B84A4A"/>
<path d="M41.6172 10.4681L39 12.4525V8.48274L41.6172 10.4681Z" fill="#471616"/>
<path d="M47 10.4594L39 16.9203V14.8881L44.3203 10.5912L39 6.29337V3.99942L47 10.4594Z" fill="#471616"/>
<path d="M45 34.8024L39 39.733V29.8727L45 34.8024Z" fill="#B84A4A"/>
<path d="M41.6172 34.5478L39 36.5322V32.5625L41.6172 34.5478Z" fill="#471616"/>
<path d="M47 34.5391L39 41.0001V38.9678L44.3203 34.671L39 30.3731V28.0792L47 34.5391Z" fill="#471616"/>
<path d="M54 35.7045L52.6162 36.852L39 25.559V23.2641L54 35.7045Z" fill="#471616"/>
<path d="M54 8.8959L39 21.3373V19.0424L52.6162 7.74942L54 8.8959Z" fill="#471616"/>
<path d="M72 10.7226L78 15.6533V5.79295L72 10.7226Z" fill="#B84A4A"/>
<path d="M75.3828 10.4681L78 12.4525V8.48274L75.3828 10.4681Z" fill="#471616"/>
<path d="M70 10.4594L78 16.9203V14.8881L72.6797 10.5912L78 6.29337V3.99942L70 10.4594Z" fill="#471616"/>
<path d="M72 34.8024L78 39.733V29.8727L72 34.8024Z" fill="#B84A4A"/>
<path d="M75.3828 34.5478L78 36.5322V32.5625L75.3828 34.5478Z" fill="#471616"/>
<path d="M70 34.5391L78 41.0001V38.9678L72.6797 34.671L78 30.3731V28.0792L70 34.5391Z" fill="#471616"/>
<path d="M63 35.7045L64.3838 36.852L78 25.559V23.2641L63 35.7045Z" fill="#471616"/>
<path d="M63 8.8959L78 21.3373V19.0424L64.3838 7.74942L63 8.8959Z" fill="#471616"/>
<path d="M45 10.7226L39 15.6533V5.79295L45 10.7226Z" fill="#B84A4A"/>
<path d="M41.6172 10.4681L39 12.4525V8.48274L41.6172 10.4681Z" fill="#471616"/>
<path d="M47 10.4594L39 16.9203V14.8881L44.3203 10.5912L39 6.29337V3.99942L47 10.4594Z" fill="#471616"/>
<path d="M45 34.8024L39 39.733V29.8727L45 34.8024Z" fill="#B84A4A"/>
<path d="M41.6172 34.5478L39 36.5322V32.5625L41.6172 34.5478Z" fill="#471616"/>
<path d="M47 34.5391L39 41.0001V38.9678L44.3203 34.671L39 30.3731V28.0792L47 34.5391Z" fill="#471616"/>
<path d="M54 35.7045L52.6162 36.852L39 25.559V23.2641L54 35.7045Z" fill="#471616"/>
<path d="M54 8.99942L39 21.4398V19.1449L52.6162 7.85196L54 8.99942Z" fill="#471616"/>
<path d="M39 43H78" stroke="#471616"/>
<path d="M39 2H78" stroke="#471616"/>
</svg>
