<svg width="41" height="41" viewBox="0 0 41 41" fill="none" xmlns="http://www.w3.org/2000/svg">
<mask id="path-1-inside-1_11_1061" fill="white">
<path d="M40.7842 13.7842H26V20.7842L40.7842 13.7842Z"/>
</mask>
<path d="M40.7842 13.7842V12.7842L41.2121 14.688L40.7842 13.7842ZM26 13.7842H25V12.7842H26V13.7842ZM26 20.7842L26.4279 21.688L25 22.3641V20.7842H26ZM40.7842 13.7842V14.7842H26V13.7842V12.7842H40.7842V13.7842ZM26 13.7842H27V20.7842H26H25V13.7842H26ZM26 20.7842L25.5721 19.8804L40.3562 12.8804L40.7842 13.7842L41.2121 14.688L26.4279 21.688L26 20.7842Z" fill="#AA7967" mask="url(#path-1-inside-1_11_1061)"/>
<mask id="path-3-inside-2_11_1061" fill="white">
<path d="M40.7842 26.7842H26V19.7842L40.7842 26.7842Z"/>
</mask>
<path d="M40.7842 26.7842V27.7842L41.2121 25.8804L40.7842 26.7842ZM26 26.7842H25V27.7842H26V26.7842ZM26 19.7842L26.4279 18.8804L25 18.2043V19.7842H26ZM40.7842 26.7842V25.7842H26V26.7842V27.7842H40.7842V26.7842ZM26 26.7842H27V19.7842H26H25V26.7842H26ZM26 19.7842L25.5721 20.688L40.3562 27.688L40.7842 26.7842L41.2121 25.8804L26.4279 18.8804L26 19.7842Z" fill="#AA7967" mask="url(#path-3-inside-2_11_1061)"/>
<mask id="path-5-inside-3_11_1061" fill="white">
<path d="M0 13.7842H15V20.7842L0 13.7842Z"/>
</mask>
<path d="M0 13.7842V12.7842L-0.422886 14.6904L0 13.7842ZM15 13.7842H16V12.7842H15V13.7842ZM15 20.7842L14.5771 21.6904L16 22.3544V20.7842H15ZM0 13.7842V14.7842H15V13.7842V12.7842H0V13.7842ZM15 13.7842H14V20.7842H15H16V13.7842H15ZM15 20.7842L15.4229 19.878L0.422886 12.878L0 13.7842L-0.422886 14.6904L14.5771 21.6904L15 20.7842Z" fill="#AA7967" mask="url(#path-5-inside-3_11_1061)"/>
<mask id="path-7-inside-4_11_1061" fill="white">
<path d="M0 26.7842H15V19.7842L0 26.7842Z"/>
</mask>
<path d="M0 26.7842V27.7842L-0.422886 25.878L0 26.7842ZM15 26.7842H16V27.7842H15V26.7842ZM15 19.7842L14.5771 18.878L16 18.214V19.7842H15ZM0 26.7842V25.7842H15V26.7842V27.7842H0V26.7842ZM15 26.7842H14V19.7842H15H16V26.7842H15ZM15 19.7842L15.4229 20.6904L0.422886 27.6904L0 26.7842L-0.422886 25.878L14.5771 18.878L15 19.7842Z" fill="#AA7967" mask="url(#path-7-inside-4_11_1061)"/>
<mask id="path-9-inside-5_11_1061" fill="white">
<path d="M27 40.5684V25.7842H20L27 40.5684Z"/>
</mask>
<path d="M27 40.5684H28L26.0962 40.9963L27 40.5684ZM27 25.7842V24.7842H28V25.7842H27ZM20 25.7842L19.0962 26.2121L18.4201 24.7842H20V25.7842ZM27 40.5684H26V25.7842H27H28V40.5684H27ZM27 25.7842V26.7842H20V25.7842V24.7842H27V25.7842ZM20 25.7842L20.9038 25.3562L27.9038 40.1404L27 40.5684L26.0962 40.9963L19.0962 26.2121L20 25.7842Z" fill="#AA7967" mask="url(#path-9-inside-5_11_1061)"/>
<mask id="path-11-inside-6_11_1061" fill="white">
<path d="M14 40.5684V25.7842H21L14 40.5684Z"/>
</mask>
<path d="M14 40.5684H13L14.9038 40.9963L14 40.5684ZM14 25.7842V24.7842H13V25.7842H14ZM21 25.7842L21.9038 26.2121L22.5799 24.7842H21V25.7842ZM14 40.5684H15V25.7842H14H13V40.5684H14ZM14 25.7842V26.7842H21V25.7842V24.7842H14V25.7842ZM21 25.7842L20.0962 25.3562L13.0962 40.1404L14 40.5684L14.9038 40.9963L21.9038 26.2121L21 25.7842Z" fill="#AA7967" mask="url(#path-11-inside-6_11_1061)"/>
<mask id="path-13-inside-7_11_1061" fill="white">
<path d="M14 0V14.7842H21L14 0Z"/>
</mask>
<path d="M14 0H13L14.9038 -0.427935L14 0ZM14 14.7842V15.7842H13V14.7842H14ZM21 14.7842L21.9038 14.3562L22.5799 15.7842H21V14.7842ZM14 0H15V14.7842H14H13V0H14ZM14 14.7842V13.7842H21V14.7842V15.7842H14V14.7842ZM21 14.7842L20.0962 15.2121L13.0962 0.427935L14 0L14.9038 -0.427935L21.9038 14.3562L21 14.7842Z" fill="#AA7967" mask="url(#path-13-inside-7_11_1061)"/>
<mask id="path-15-inside-8_11_1061" fill="white">
<path d="M27 0V14.7842H20L27 0Z"/>
</mask>
<path d="M27 0H28L26.0962 -0.427935L27 0ZM27 14.7842V15.7842H28V14.7842H27ZM20 14.7842L19.0962 14.3562L18.4201 15.7842H20V14.7842ZM27 0H26V14.7842H27H28V0H27ZM27 14.7842V13.7842H20V14.7842V15.7842H27V14.7842ZM20 14.7842L20.9038 15.2121L27.9038 0.427935L27 0L26.0962 -0.427935L19.0962 14.3562L20 14.7842Z" fill="#AA7967" mask="url(#path-15-inside-8_11_1061)"/>
<rect x="17.5" y="17.2842" width="6.48002" height="5.72516" stroke="#AA7967"/>
</svg>
