<svg width="296" height="139" viewBox="0 0 296 139" fill="none" xmlns="http://www.w3.org/2000/svg">
<rect width="296" height="139" fill="#1E1E1E"/>
<path d="M0 2C0 0.89543 0.895431 0 2 0H294C295.105 0 296 0.895431 296 2V5C296 6.10457 295.105 7 294 7H2.00001C0.895438 7 0 6.10457 0 5V2Z" fill="#444444"/>
<path d="M2 0V1H294V0V-1H2V0ZM296 2H295V5H296H297V2H296ZM294 7V6H2.00001V7V8H294V7ZM0 5H1V2H0H-1V5H0ZM2.00001 7V6C1.44772 6 1 5.55228 1 5H0H-1C-1 6.65686 0.343158 8 2.00001 8V7ZM296 5H295C295 5.55228 294.552 6 294 6V7V8C295.657 8 297 6.65685 297 5H296ZM294 0V1C294.552 1 295 1.44772 295 2H296H297C297 0.343141 295.657 -1 294 -1V0ZM2 0V-1C0.343146 -1 -1 0.343146 -1 2H0H1C1 1.44772 1.44772 1 2 1V0Z" fill="white" fill-opacity="0.1"/>
<path d="M106.48 101.854L90 116.301L106.48 130.748L108 129.416L93.04 116.301L108 103.187L106.48 101.854Z" fill="#04736A"/>
<path d="M106.52 101.854L123 116.301L106.52 130.748L105 129.416L119.96 116.301L105 103.187L106.52 101.854Z" fill="#04736A"/>
<mask id="path-5-inside-1_0_1" fill="white">
<path d="M103.692 124.007V118.341H106.817L103.692 124.007Z"/>
</mask>
<path d="M103.692 124.007V118.341H106.817L103.692 124.007Z" fill="white" fill-opacity="0.1"/>
<path d="M103.692 124.007H102.992L104.305 124.345L103.692 124.007ZM103.692 118.341V117.641H102.992V118.341H103.692ZM106.817 118.341L107.43 118.679L108.002 117.641H106.817V118.341ZM103.692 124.007H104.392V118.341H103.692H102.992V124.007H103.692ZM103.692 118.341V119.041H106.817V118.341V117.641H103.692V118.341ZM106.817 118.341L106.204 118.003L103.079 123.669L103.692 124.007L104.305 124.345L107.43 118.679L106.817 118.341Z" fill="#ED9252" fill-opacity="0.71" mask="url(#path-5-inside-1_0_1)"/>
<mask id="path-7-inside-2_0_1" fill="white">
<path d="M109.271 124.007V118.341H106.221L109.271 124.007Z"/>
</mask>
<path d="M109.271 124.007V118.341H106.221L109.271 124.007Z" fill="white" fill-opacity="0.1"/>
<path d="M109.271 124.007H109.971L108.655 124.339L109.271 124.007ZM109.271 118.341V117.641H109.971V118.341H109.271ZM106.221 118.341L105.605 118.673L105.05 117.641H106.221V118.341ZM109.271 124.007H108.571V118.341H109.271H109.971V124.007H109.271ZM109.271 118.341V119.041H106.221V118.341V117.641H109.271V118.341ZM106.221 118.341L106.838 118.009L109.887 123.675L109.271 124.007L108.655 124.339L105.605 118.673L106.221 118.341Z" fill="#ED9252" fill-opacity="0.71" mask="url(#path-7-inside-2_0_1)"/>
<mask id="path-9-inside-3_0_1" fill="white">
<path d="M109.458 108.595V114.261H106.333L109.458 108.595Z"/>
</mask>
<path d="M109.458 108.595V114.261H106.333L109.458 108.595Z" fill="white" fill-opacity="0.1"/>
<path d="M109.458 108.595H110.158L108.845 108.257L109.458 108.595ZM109.458 114.261V114.961H110.158V114.261H109.458ZM106.333 114.261L105.72 113.923L105.148 114.961H106.333V114.261ZM109.458 108.595H108.758V114.261H109.458H110.158V108.595H109.458ZM109.458 114.261V113.561H106.333V114.261V114.961H109.458V114.261ZM106.333 114.261L106.946 114.599L110.071 108.933L109.458 108.595L108.845 108.257L105.72 113.923L106.333 114.261Z" fill="#ED9252" fill-opacity="0.71" mask="url(#path-9-inside-3_0_1)"/>
<mask id="path-11-inside-4_0_1" fill="white">
<path d="M103.804 108.595V114.261H106.929L103.804 108.595Z"/>
</mask>
<path d="M103.804 108.595V114.261H106.929L103.804 108.595Z" fill="white" fill-opacity="0.1"/>
<path d="M103.804 108.595H103.104L104.416 108.257L103.804 108.595ZM103.804 114.261V114.961H103.104V114.261H103.804ZM106.929 114.261L107.541 113.923L108.114 114.961H106.929V114.261ZM103.804 108.595H104.504V114.261H103.804H103.104V108.595H103.804ZM103.804 114.261V113.561H106.929V114.261V114.961H103.804V114.261ZM106.929 114.261L106.316 114.599L103.191 108.933L103.804 108.595L104.416 108.257L107.541 113.923L106.929 114.261Z" fill="#ED9252" fill-opacity="0.71" mask="url(#path-11-inside-4_0_1)"/>
<mask id="path-13-inside-5_0_1" fill="white">
<path d="M98 113.755H104.25V117.094L98 113.755Z"/>
</mask>
<path d="M98 113.755H104.25V117.094L98 113.755Z" fill="white" fill-opacity="0.1"/>
<path d="M98 113.755V113.055L97.6702 114.372L98 113.755ZM104.25 113.755H104.95V113.055H104.25V113.755ZM104.25 117.094L103.92 117.711L104.95 118.261V117.094H104.25ZM98 113.755V114.455H104.25V113.755V113.055H98V113.755ZM104.25 113.755H103.55V117.094H104.25H104.95V113.755H104.25ZM104.25 117.094L104.58 116.476L98.3298 113.137L98 113.755L97.6702 114.372L103.92 117.711L104.25 117.094Z" fill="#ED9252" fill-opacity="0.71" mask="url(#path-13-inside-5_0_1)"/>
<mask id="path-15-inside-6_0_1" fill="white">
<path d="M98 118.982H104.25V116.149L98 118.982Z"/>
</mask>
<path d="M98 118.982H104.25V116.149L98 118.982Z" fill="white" fill-opacity="0.1"/>
<path d="M98 118.982V119.682L97.711 118.345L98 118.982ZM104.25 118.982H104.95V119.682H104.25V118.982ZM104.25 116.149L103.961 115.512L104.95 115.063V116.149H104.25ZM98 118.982V118.282H104.25V118.982V119.682H98V118.982ZM104.25 118.982H103.55V116.149H104.25H104.95V118.982H104.25ZM104.25 116.149L104.539 116.787L98.289 119.62L98 118.982L97.711 118.345L103.961 115.512L104.25 116.149Z" fill="#ED9252" fill-opacity="0.71" mask="url(#path-15-inside-6_0_1)"/>
<mask id="path-17-inside-7_0_1" fill="white">
<path d="M115.001 118.881H108.751V116.048L115.001 118.881Z"/>
</mask>
<path d="M115.001 118.881H108.751V116.048L115.001 118.881Z" fill="white" fill-opacity="0.1"/>
<path d="M115.001 118.881V119.581L115.29 118.243L115.001 118.881ZM108.751 118.881H108.051V119.581H108.751V118.881ZM108.751 116.048L109.04 115.41L108.051 114.962V116.048H108.751ZM115.001 118.881V118.181H108.751V118.881V119.581H115.001V118.881ZM108.751 118.881H109.451V116.048H108.751H108.051V118.881H108.751ZM108.751 116.048L108.462 116.685L114.712 119.518L115.001 118.881L115.29 118.243L109.04 115.41L108.751 116.048Z" fill="#ED9252" fill-opacity="0.71" mask="url(#path-17-inside-7_0_1)"/>
<mask id="path-19-inside-8_0_1" fill="white">
<path d="M115.001 113.755H108.751V116.588L115.001 113.755Z"/>
</mask>
<path d="M115.001 113.755H108.751V116.588L115.001 113.755Z" fill="white" fill-opacity="0.1"/>
<path d="M115.001 113.755V113.055L115.29 114.392L115.001 113.755ZM108.751 113.755H108.051V113.055H108.751V113.755ZM108.751 116.588L109.04 117.225L108.051 117.673V116.588H108.751ZM115.001 113.755V114.455H108.751V113.755V113.055H115.001V113.755ZM108.751 113.755H109.451V116.588H108.751H108.051V113.755H108.751ZM108.751 116.588L108.462 115.95L114.712 113.117L115.001 113.755L115.29 114.392L109.04 117.225L108.751 116.588Z" fill="#ED9252" fill-opacity="0.71" mask="url(#path-19-inside-8_0_1)"/>
<rect x="104.957" y="114.901" width="3.16198" height="2.8665" fill="white" fill-opacity="0.1"/>
<rect x="105.307" y="115.251" width="2.46198" height="2.1665" stroke="#ED9252" stroke-opacity="0.71" stroke-width="0.7"/>
<path d="M93 104.723L87 109.653V99.793L93 104.723Z" fill="#B84A4A"/>
<path d="M89.6172 104.468L87 106.452V102.483L89.6172 104.468Z" fill="#471616"/>
<path d="M95 104.459L87 110.92V108.888L92.3203 104.591L87 100.293V97.9994L95 104.459Z" fill="#471616"/>
<path d="M93 128.802L87 133.733V123.873L93 128.802Z" fill="#B84A4A"/>
<path d="M89.6172 128.548L87 130.532V126.562L89.6172 128.548Z" fill="#471616"/>
<path d="M95 128.539L87 135V132.968L92.3203 128.671L87 124.373V122.079L95 128.539Z" fill="#471616"/>
<path d="M102 129.704L100.616 130.852L87 119.559V117.264L102 129.704Z" fill="#471616"/>
<path d="M102 102.896L87 115.337V113.042L100.616 101.749L102 102.896Z" fill="#471616"/>
<path d="M120 104.723L126 109.653V99.793L120 104.723Z" fill="#B84A4A"/>
<path d="M123.383 104.468L126 106.452V102.483L123.383 104.468Z" fill="#471616"/>
<path d="M118 104.459L126 110.92V108.888L120.68 104.591L126 100.293V97.9994L118 104.459Z" fill="#471616"/>
<path d="M120 128.802L126 133.733V123.873L120 128.802Z" fill="#B84A4A"/>
<path d="M123.383 128.548L126 130.532V126.562L123.383 128.548Z" fill="#471616"/>
<path d="M118 128.539L126 135V132.968L120.68 128.671L126 124.373V122.079L118 128.539Z" fill="#471616"/>
<path d="M111 129.704L112.384 130.852L126 119.559V117.264L111 129.704Z" fill="#471616"/>
<path d="M111 102.896L126 115.337V113.042L112.384 101.749L111 102.896Z" fill="#471616"/>
<path d="M93 104.723L87 109.653V99.793L93 104.723Z" fill="#B84A4A"/>
<path d="M89.6172 104.468L87 106.452V102.483L89.6172 104.468Z" fill="#471616"/>
<path d="M95 104.459L87 110.92V108.888L92.3203 104.591L87 100.293V97.9994L95 104.459Z" fill="#471616"/>
<path d="M93 128.802L87 133.733V123.873L93 128.802Z" fill="#B84A4A"/>
<path d="M89.6172 128.548L87 130.532V126.562L89.6172 128.548Z" fill="#471616"/>
<path d="M95 128.539L87 135V132.968L92.3203 128.671L87 124.373V122.079L95 128.539Z" fill="#471616"/>
<mask id="path-45-inside-9_0_1" fill="white">
<path d="M102 129.44L100.616 130.588L87 119.295V117L102 129.44Z"/>
</mask>
<path d="M102 129.44L100.616 130.588L87 119.295V117L102 129.44Z" fill="#471616" fill-opacity="0.63"/>
<path d="M102 129.44L102.638 130.21L103.567 129.44L102.638 128.671L102 129.44ZM100.616 130.588L99.9778 131.358L100.616 131.887L101.255 131.358L100.616 130.588ZM87 119.295H86V119.765L86.3616 120.065L87 119.295ZM87 117L87.6384 116.23L86 114.871V117H87ZM102 129.44L101.362 128.671L99.9779 129.818L100.616 130.588L101.255 131.358L102.638 130.21L102 129.44ZM100.616 130.588L101.255 129.818L87.6384 118.525L87 119.295L86.3616 120.065L99.9778 131.358L100.616 130.588ZM87 119.295H88V117H87H86V119.295H87ZM87 117L86.3616 117.77L101.362 130.21L102 129.44L102.638 128.671L87.6384 116.23L87 117Z" fill="#471616" fill-opacity="0.16" mask="url(#path-45-inside-9_0_1)"/>
<path d="M102 102.999L87 115.44V113.145L100.616 101.852L102 102.999Z" fill="#471616" fill-opacity="0.58"/>
<path d="M87 137H126" stroke="#471616"/>
<path d="M87 96H126" stroke="#471616"/>
<path d="M184.48 101.854L168 116.301L184.48 130.748L186 129.416L171.04 116.301L186 103.187L184.48 101.854Z" fill="#04736A"/>
<path d="M184.52 101.854L201 116.301L184.52 130.748L183 129.416L197.96 116.301L183 103.187L184.52 101.854Z" fill="#04736A"/>
<mask id="path-52-inside-10_0_1" fill="white">
<path d="M181.692 124.007V118.341H184.817L181.692 124.007Z"/>
</mask>
<path d="M181.692 124.007V118.341H184.817L181.692 124.007Z" fill="white" fill-opacity="0.1"/>
<path d="M181.692 124.007H180.992L182.305 124.345L181.692 124.007ZM181.692 118.341V117.641H180.992V118.341H181.692ZM184.817 118.341L185.43 118.679L186.002 117.641H184.817V118.341ZM181.692 124.007H182.392V118.341H181.692H180.992V124.007H181.692ZM181.692 118.341V119.041H184.817V118.341V117.641H181.692V118.341ZM184.817 118.341L184.204 118.003L181.079 123.669L181.692 124.007L182.305 124.345L185.43 118.679L184.817 118.341Z" fill="#ED9252" fill-opacity="0.71" mask="url(#path-52-inside-10_0_1)"/>
<mask id="path-54-inside-11_0_1" fill="white">
<path d="M187.271 124.007V118.341H184.221L187.271 124.007Z"/>
</mask>
<path d="M187.271 124.007V118.341H184.221L187.271 124.007Z" fill="white" fill-opacity="0.1"/>
<path d="M187.271 124.007H187.971L186.655 124.339L187.271 124.007ZM187.271 118.341V117.641H187.971V118.341H187.271ZM184.221 118.341L183.605 118.673L183.05 117.641H184.221V118.341ZM187.271 124.007H186.571V118.341H187.271H187.971V124.007H187.271ZM187.271 118.341V119.041H184.221V118.341V117.641H187.271V118.341ZM184.221 118.341L184.838 118.009L187.887 123.675L187.271 124.007L186.655 124.339L183.605 118.673L184.221 118.341Z" fill="#ED9252" fill-opacity="0.71" mask="url(#path-54-inside-11_0_1)"/>
<mask id="path-56-inside-12_0_1" fill="white">
<path d="M187.458 108.595V114.261H184.333L187.458 108.595Z"/>
</mask>
<path d="M187.458 108.595V114.261H184.333L187.458 108.595Z" fill="white" fill-opacity="0.1"/>
<path d="M187.458 108.595H188.158L186.845 108.257L187.458 108.595ZM187.458 114.261V114.961H188.158V114.261H187.458ZM184.333 114.261L183.72 113.923L183.148 114.961H184.333V114.261ZM187.458 108.595H186.758V114.261H187.458H188.158V108.595H187.458ZM187.458 114.261V113.561H184.333V114.261V114.961H187.458V114.261ZM184.333 114.261L184.946 114.599L188.071 108.933L187.458 108.595L186.845 108.257L183.72 113.923L184.333 114.261Z" fill="#ED9252" fill-opacity="0.71" mask="url(#path-56-inside-12_0_1)"/>
<mask id="path-58-inside-13_0_1" fill="white">
<path d="M181.804 108.595V114.261H184.929L181.804 108.595Z"/>
</mask>
<path d="M181.804 108.595V114.261H184.929L181.804 108.595Z" fill="white" fill-opacity="0.1"/>
<path d="M181.804 108.595H181.104L182.416 108.257L181.804 108.595ZM181.804 114.261V114.961H181.104V114.261H181.804ZM184.929 114.261L185.541 113.923L186.114 114.961H184.929V114.261ZM181.804 108.595H182.504V114.261H181.804H181.104V108.595H181.804ZM181.804 114.261V113.561H184.929V114.261V114.961H181.804V114.261ZM184.929 114.261L184.316 114.599L181.191 108.933L181.804 108.595L182.416 108.257L185.541 113.923L184.929 114.261Z" fill="#ED9252" fill-opacity="0.71" mask="url(#path-58-inside-13_0_1)"/>
<mask id="path-60-inside-14_0_1" fill="white">
<path d="M176 113.755H182.25V117.094L176 113.755Z"/>
</mask>
<path d="M176 113.755H182.25V117.094L176 113.755Z" fill="white" fill-opacity="0.1"/>
<path d="M176 113.755V113.055L175.67 114.372L176 113.755ZM182.25 113.755H182.95V113.055H182.25V113.755ZM182.25 117.094L181.92 117.711L182.95 118.261V117.094H182.25ZM176 113.755V114.455H182.25V113.755V113.055H176V113.755ZM182.25 113.755H181.55V117.094H182.25H182.95V113.755H182.25ZM182.25 117.094L182.58 116.476L176.33 113.137L176 113.755L175.67 114.372L181.92 117.711L182.25 117.094Z" fill="#ED9252" fill-opacity="0.71" mask="url(#path-60-inside-14_0_1)"/>
<mask id="path-62-inside-15_0_1" fill="white">
<path d="M176 118.982H182.25V116.149L176 118.982Z"/>
</mask>
<path d="M176 118.982H182.25V116.149L176 118.982Z" fill="white" fill-opacity="0.1"/>
<path d="M176 118.982V119.682L175.711 118.345L176 118.982ZM182.25 118.982H182.95V119.682H182.25V118.982ZM182.25 116.149L181.961 115.512L182.95 115.063V116.149H182.25ZM176 118.982V118.282H182.25V118.982V119.682H176V118.982ZM182.25 118.982H181.55V116.149H182.25H182.95V118.982H182.25ZM182.25 116.149L182.539 116.787L176.289 119.62L176 118.982L175.711 118.345L181.961 115.512L182.25 116.149Z" fill="#ED9252" fill-opacity="0.71" mask="url(#path-62-inside-15_0_1)"/>
<mask id="path-64-inside-16_0_1" fill="white">
<path d="M193.001 118.881H186.751V116.048L193.001 118.881Z"/>
</mask>
<path d="M193.001 118.881H186.751V116.048L193.001 118.881Z" fill="white" fill-opacity="0.1"/>
<path d="M193.001 118.881V119.581L193.29 118.243L193.001 118.881ZM186.751 118.881H186.051V119.581H186.751V118.881ZM186.751 116.048L187.04 115.41L186.051 114.962V116.048H186.751ZM193.001 118.881V118.181H186.751V118.881V119.581H193.001V118.881ZM186.751 118.881H187.451V116.048H186.751H186.051V118.881H186.751ZM186.751 116.048L186.462 116.685L192.712 119.518L193.001 118.881L193.29 118.243L187.04 115.41L186.751 116.048Z" fill="#ED9252" fill-opacity="0.71" mask="url(#path-64-inside-16_0_1)"/>
<mask id="path-66-inside-17_0_1" fill="white">
<path d="M193.001 113.755H186.751V116.588L193.001 113.755Z"/>
</mask>
<path d="M193.001 113.755H186.751V116.588L193.001 113.755Z" fill="white" fill-opacity="0.1"/>
<path d="M193.001 113.755V113.055L193.29 114.392L193.001 113.755ZM186.751 113.755H186.051V113.055H186.751V113.755ZM186.751 116.588L187.04 117.225L186.051 117.673V116.588H186.751ZM193.001 113.755V114.455H186.751V113.755V113.055H193.001V113.755ZM186.751 113.755H187.451V116.588H186.751H186.051V113.755H186.751ZM186.751 116.588L186.462 115.95L192.712 113.117L193.001 113.755L193.29 114.392L187.04 117.225L186.751 116.588Z" fill="#ED9252" fill-opacity="0.71" mask="url(#path-66-inside-17_0_1)"/>
<rect x="182.957" y="114.901" width="3.16198" height="2.8665" fill="white" fill-opacity="0.1"/>
<rect x="183.307" y="115.251" width="2.46198" height="2.1665" stroke="#ED9252" stroke-opacity="0.71" stroke-width="0.7"/>
<path d="M171 104.723L165 109.653V99.793L171 104.723Z" fill="#B84A4A"/>
<path d="M167.617 104.468L165 106.452V102.483L167.617 104.468Z" fill="#471616"/>
<path d="M173 104.459L165 110.92V108.888L170.32 104.591L165 100.293V97.9994L173 104.459Z" fill="#471616"/>
<path d="M171 128.802L165 133.733V123.873L171 128.802Z" fill="#B84A4A"/>
<path d="M167.617 128.548L165 130.532V126.562L167.617 128.548Z" fill="#471616"/>
<path d="M173 128.539L165 135V132.968L170.32 128.671L165 124.373V122.079L173 128.539Z" fill="#471616"/>
<path d="M180 129.704L178.616 130.852L165 119.559V117.264L180 129.704Z" fill="#471616"/>
<path d="M180 102.896L165 115.337V113.042L178.616 101.749L180 102.896Z" fill="#471616"/>
<path d="M198 104.723L204 109.653V99.793L198 104.723Z" fill="#B84A4A"/>
<path d="M201.383 104.468L204 106.452V102.483L201.383 104.468Z" fill="#471616"/>
<path d="M196 104.459L204 110.92V108.888L198.68 104.591L204 100.293V97.9994L196 104.459Z" fill="#471616"/>
<path d="M198 128.802L204 133.733V123.873L198 128.802Z" fill="#B84A4A"/>
<path d="M201.383 128.548L204 130.532V126.562L201.383 128.548Z" fill="#471616"/>
<path d="M196 128.539L204 135V132.968L198.68 128.671L204 124.373V122.079L196 128.539Z" fill="#471616"/>
<path d="M189 129.704L190.384 130.852L204 119.559V117.264L189 129.704Z" fill="#471616"/>
<path d="M189 102.896L204 115.337V113.042L190.384 101.749L189 102.896Z" fill="#471616"/>
<path d="M171 104.723L165 109.653V99.793L171 104.723Z" fill="#B84A4A"/>
<path d="M167.617 104.468L165 106.452V102.483L167.617 104.468Z" fill="#471616"/>
<path d="M173 104.459L165 110.92V108.888L170.32 104.591L165 100.293V97.9994L173 104.459Z" fill="#471616"/>
<path d="M171 128.802L165 133.733V123.873L171 128.802Z" fill="#B84A4A"/>
<path d="M167.617 128.548L165 130.532V126.562L167.617 128.548Z" fill="#471616"/>
<path d="M173 128.539L165 135V132.968L170.32 128.671L165 124.373V122.079L173 128.539Z" fill="#471616"/>
<path d="M180 129.704L178.616 130.852L165 119.559V117.264L180 129.704Z" fill="#471616"/>
<path d="M180 102.999L165 115.44V113.145L178.616 101.852L180 102.999Z" fill="#471616"/>
<path d="M165 137H204" stroke="#471616"/>
<path d="M165 96H204" stroke="#471616"/>
<path d="M145.48 101.854L129 116.301L145.48 130.748L147 129.416L132.04 116.301L147 103.187L145.48 101.854Z" fill="#04736A"/>
<path d="M145.52 101.854L162 116.301L145.52 130.748L144 129.416L158.96 116.301L144 103.187L145.52 101.854Z" fill="#04736A"/>
<mask id="path-98-inside-18_0_1" fill="white">
<path d="M142.692 124.007V118.341H145.817L142.692 124.007Z"/>
</mask>
<path d="M142.692 124.007V118.341H145.817L142.692 124.007Z" fill="white" fill-opacity="0.1"/>
<path d="M142.692 124.007H141.992L143.305 124.345L142.692 124.007ZM142.692 118.341V117.641H141.992V118.341H142.692ZM145.817 118.341L146.43 118.679L147.002 117.641H145.817V118.341ZM142.692 124.007H143.392V118.341H142.692H141.992V124.007H142.692ZM142.692 118.341V119.041H145.817V118.341V117.641H142.692V118.341ZM145.817 118.341L145.204 118.003L142.079 123.669L142.692 124.007L143.305 124.345L146.43 118.679L145.817 118.341Z" fill="#ED9252" fill-opacity="0.71" mask="url(#path-98-inside-18_0_1)"/>
<mask id="path-100-inside-19_0_1" fill="white">
<path d="M148.271 124.007V118.341H145.221L148.271 124.007Z"/>
</mask>
<path d="M148.271 124.007V118.341H145.221L148.271 124.007Z" fill="white" fill-opacity="0.1"/>
<path d="M148.271 124.007H148.971L147.655 124.339L148.271 124.007ZM148.271 118.341V117.641H148.971V118.341H148.271ZM145.221 118.341L144.605 118.673L144.05 117.641H145.221V118.341ZM148.271 124.007H147.571V118.341H148.271H148.971V124.007H148.271ZM148.271 118.341V119.041H145.221V118.341V117.641H148.271V118.341ZM145.221 118.341L145.838 118.009L148.887 123.675L148.271 124.007L147.655 124.339L144.605 118.673L145.221 118.341Z" fill="#ED9252" fill-opacity="0.71" mask="url(#path-100-inside-19_0_1)"/>
<mask id="path-102-inside-20_0_1" fill="white">
<path d="M148.458 108.595V114.261H145.333L148.458 108.595Z"/>
</mask>
<path d="M148.458 108.595V114.261H145.333L148.458 108.595Z" fill="white" fill-opacity="0.1"/>
<path d="M148.458 108.595H149.158L147.845 108.257L148.458 108.595ZM148.458 114.261V114.961H149.158V114.261H148.458ZM145.333 114.261L144.72 113.923L144.148 114.961H145.333V114.261ZM148.458 108.595H147.758V114.261H148.458H149.158V108.595H148.458ZM148.458 114.261V113.561H145.333V114.261V114.961H148.458V114.261ZM145.333 114.261L145.946 114.599L149.071 108.933L148.458 108.595L147.845 108.257L144.72 113.923L145.333 114.261Z" fill="#ED9252" fill-opacity="0.71" mask="url(#path-102-inside-20_0_1)"/>
<mask id="path-104-inside-21_0_1" fill="white">
<path d="M142.804 108.595V114.261H145.929L142.804 108.595Z"/>
</mask>
<path d="M142.804 108.595V114.261H145.929L142.804 108.595Z" fill="white" fill-opacity="0.1"/>
<path d="M142.804 108.595H142.104L143.416 108.257L142.804 108.595ZM142.804 114.261V114.961H142.104V114.261H142.804ZM145.929 114.261L146.541 113.923L147.114 114.961H145.929V114.261ZM142.804 108.595H143.504V114.261H142.804H142.104V108.595H142.804ZM142.804 114.261V113.561H145.929V114.261V114.961H142.804V114.261ZM145.929 114.261L145.316 114.599L142.191 108.933L142.804 108.595L143.416 108.257L146.541 113.923L145.929 114.261Z" fill="#ED9252" fill-opacity="0.71" mask="url(#path-104-inside-21_0_1)"/>
<mask id="path-106-inside-22_0_1" fill="white">
<path d="M137 113.755H143.25V117.094L137 113.755Z"/>
</mask>
<path d="M137 113.755H143.25V117.094L137 113.755Z" fill="white" fill-opacity="0.1"/>
<path d="M137 113.755V113.055L136.67 114.372L137 113.755ZM143.25 113.755H143.95V113.055H143.25V113.755ZM143.25 117.094L142.92 117.711L143.95 118.261V117.094H143.25ZM137 113.755V114.455H143.25V113.755V113.055H137V113.755ZM143.25 113.755H142.55V117.094H143.25H143.95V113.755H143.25ZM143.25 117.094L143.58 116.476L137.33 113.137L137 113.755L136.67 114.372L142.92 117.711L143.25 117.094Z" fill="#ED9252" fill-opacity="0.71" mask="url(#path-106-inside-22_0_1)"/>
<mask id="path-108-inside-23_0_1" fill="white">
<path d="M137 118.982H143.25V116.149L137 118.982Z"/>
</mask>
<path d="M137 118.982H143.25V116.149L137 118.982Z" fill="white" fill-opacity="0.1"/>
<path d="M137 118.982V119.682L136.711 118.345L137 118.982ZM143.25 118.982H143.95V119.682H143.25V118.982ZM143.25 116.149L142.961 115.512L143.95 115.063V116.149H143.25ZM137 118.982V118.282H143.25V118.982V119.682H137V118.982ZM143.25 118.982H142.55V116.149H143.25H143.95V118.982H143.25ZM143.25 116.149L143.539 116.787L137.289 119.62L137 118.982L136.711 118.345L142.961 115.512L143.25 116.149Z" fill="#ED9252" fill-opacity="0.71" mask="url(#path-108-inside-23_0_1)"/>
<mask id="path-110-inside-24_0_1" fill="white">
<path d="M154.001 118.881H147.751V116.048L154.001 118.881Z"/>
</mask>
<path d="M154.001 118.881H147.751V116.048L154.001 118.881Z" fill="white" fill-opacity="0.1"/>
<path d="M154.001 118.881V119.581L154.29 118.243L154.001 118.881ZM147.751 118.881H147.051V119.581H147.751V118.881ZM147.751 116.048L148.04 115.41L147.051 114.962V116.048H147.751ZM154.001 118.881V118.181H147.751V118.881V119.581H154.001V118.881ZM147.751 118.881H148.451V116.048H147.751H147.051V118.881H147.751ZM147.751 116.048L147.462 116.685L153.712 119.518L154.001 118.881L154.29 118.243L148.04 115.41L147.751 116.048Z" fill="#ED9252" fill-opacity="0.71" mask="url(#path-110-inside-24_0_1)"/>
<mask id="path-112-inside-25_0_1" fill="white">
<path d="M154.001 113.755H147.751V116.588L154.001 113.755Z"/>
</mask>
<path d="M154.001 113.755H147.751V116.588L154.001 113.755Z" fill="white" fill-opacity="0.1"/>
<path d="M154.001 113.755V113.055L154.29 114.392L154.001 113.755ZM147.751 113.755H147.051V113.055H147.751V113.755ZM147.751 116.588L148.04 117.225L147.051 117.673V116.588H147.751ZM154.001 113.755V114.455H147.751V113.755V113.055H154.001V113.755ZM147.751 113.755H148.451V116.588H147.751H147.051V113.755H147.751ZM147.751 116.588L147.462 115.95L153.712 113.117L154.001 113.755L154.29 114.392L148.04 117.225L147.751 116.588Z" fill="#ED9252" fill-opacity="0.71" mask="url(#path-112-inside-25_0_1)"/>
<rect x="143.957" y="114.901" width="3.16198" height="2.8665" fill="white" fill-opacity="0.1"/>
<rect x="144.307" y="115.251" width="2.46198" height="2.1665" stroke="#ED9252" stroke-opacity="0.71" stroke-width="0.7"/>
<path d="M132 104.723L126 109.653V99.793L132 104.723Z" fill="#B84A4A"/>
<path d="M128.617 104.468L126 106.452V102.483L128.617 104.468Z" fill="#471616"/>
<path d="M134 104.459L126 110.92V108.888L131.32 104.591L126 100.293V97.9994L134 104.459Z" fill="#471616"/>
<path d="M132 128.802L126 133.733V123.873L132 128.802Z" fill="#B84A4A"/>
<path d="M128.617 128.548L126 130.532V126.562L128.617 128.548Z" fill="#471616"/>
<path d="M134 128.539L126 135V132.968L131.32 128.671L126 124.373V122.079L134 128.539Z" fill="#471616"/>
<path d="M141 129.704L139.616 130.852L126 119.559V117.264L141 129.704Z" fill="#471616"/>
<path d="M141 102.896L126 115.337V113.042L139.616 101.749L141 102.896Z" fill="#471616"/>
<path d="M159 104.723L165 109.653V99.793L159 104.723Z" fill="#B84A4A"/>
<path d="M162.383 104.468L165 106.452V102.483L162.383 104.468Z" fill="#471616"/>
<path d="M157 104.459L165 110.92V108.888L159.68 104.591L165 100.293V97.9994L157 104.459Z" fill="#471616"/>
<path d="M159 128.802L165 133.733V123.873L159 128.802Z" fill="#B84A4A"/>
<path d="M162.383 128.548L165 130.532V126.562L162.383 128.548Z" fill="#471616"/>
<path d="M157 128.539L165 135V132.968L159.68 128.671L165 124.373V122.079L157 128.539Z" fill="#471616"/>
<path d="M150 129.704L151.384 130.852L165 119.559V117.264L150 129.704Z" fill="#471616"/>
<path d="M150 102.896L165 115.337V113.042L151.384 101.749L150 102.896Z" fill="#471616"/>
<path d="M132 104.723L126 109.653V99.793L132 104.723Z" fill="#B84A4A"/>
<path d="M128.617 104.468L126 106.452V102.483L128.617 104.468Z" fill="#471616"/>
<path d="M134 104.459L126 110.92V108.888L131.32 104.591L126 100.293V97.9994L134 104.459Z" fill="#471616"/>
<path d="M132 128.802L126 133.733V123.873L132 128.802Z" fill="#B84A4A"/>
<path d="M128.617 128.548L126 130.532V126.562L128.617 128.548Z" fill="#471616"/>
<path d="M134 128.539L126 135V132.968L131.32 128.671L126 124.373V122.079L134 128.539Z" fill="#471616"/>
<path d="M141 129.704L139.616 130.852L126 119.559V117.264L141 129.704Z" fill="#471616"/>
<path d="M141 102.999L126 115.44V113.145L139.616 101.852L141 102.999Z" fill="#471616"/>
<path d="M126 137H165" stroke="#471616"/>
<path d="M126 96H165" stroke="#471616"/>
</svg>
